<mxfile host="app.diagrams.net" agent="Mozilla/5.0 (Windows NT 10.0; Win64; x64) AppleWebKit/537.36 (KHTML, like Gecko) Chrome/136.0.0.0 Safari/537.36" version="27.0.9">
  <diagram name="Страница — 1" id="pceooOHjQnotn-OmFa9f">
    <mxGraphModel dx="1213" dy="1933" grid="0" gridSize="10" guides="1" tooltips="1" connect="1" arrows="1" fold="1" page="1" pageScale="1" pageWidth="827" pageHeight="1169" math="0" shadow="0">
      <root>
        <mxCell id="0" />
        <mxCell id="1" parent="0" />
        <mxCell id="Vf15_LbqZxq-rUc3vXgi-1" value="Пользователь (users)" style="swimlane;fontStyle=0;align=center;verticalAlign=top;childLayout=stackLayout;horizontal=1;startSize=26;horizontalStack=0;resizeParent=1;resizeLast=0;collapsible=1;marginBottom=0;rounded=0;shadow=0;strokeWidth=1;" parent="1" vertex="1">
          <mxGeometry x="310" y="320" width="180" height="208" as="geometry">
            <mxRectangle x="220" y="120" width="160" height="26" as="alternateBounds" />
          </mxGeometry>
        </mxCell>
        <mxCell id="Vf15_LbqZxq-rUc3vXgi-2" value="ID пользователя (id_user)" style="text;align=left;verticalAlign=top;spacingLeft=4;spacingRight=4;overflow=hidden;rotatable=0;points=[[0,0.5],[1,0.5]];portConstraint=eastwest;" parent="Vf15_LbqZxq-rUc3vXgi-1" vertex="1">
          <mxGeometry y="26" width="180" height="26" as="geometry" />
        </mxCell>
        <mxCell id="Vf15_LbqZxq-rUc3vXgi-3" value="ФИО (name_user)" style="text;align=left;verticalAlign=top;spacingLeft=4;spacingRight=4;overflow=hidden;rotatable=0;points=[[0,0.5],[1,0.5]];portConstraint=eastwest;rounded=0;shadow=0;html=0;" parent="Vf15_LbqZxq-rUc3vXgi-1" vertex="1">
          <mxGeometry y="52" width="180" height="26" as="geometry" />
        </mxCell>
        <mxCell id="Vf15_LbqZxq-rUc3vXgi-4" value="Роль (role_name)" style="text;align=left;verticalAlign=top;spacingLeft=4;spacingRight=4;overflow=hidden;rotatable=0;points=[[0,0.5],[1,0.5]];portConstraint=eastwest;rounded=0;shadow=0;html=0;" parent="Vf15_LbqZxq-rUc3vXgi-1" vertex="1">
          <mxGeometry y="78" width="180" height="26" as="geometry" />
        </mxCell>
        <mxCell id="Vf15_LbqZxq-rUc3vXgi-5" value="Email (email)" style="text;align=left;verticalAlign=top;spacingLeft=4;spacingRight=4;overflow=hidden;rotatable=0;points=[[0,0.5],[1,0.5]];portConstraint=eastwest;rounded=0;shadow=0;html=0;" parent="Vf15_LbqZxq-rUc3vXgi-1" vertex="1">
          <mxGeometry y="104" width="180" height="26" as="geometry" />
        </mxCell>
        <mxCell id="Vf15_LbqZxq-rUc3vXgi-6" value="Пароль (password)" style="text;align=left;verticalAlign=top;spacingLeft=4;spacingRight=4;overflow=hidden;rotatable=0;points=[[0,0.5],[1,0.5]];portConstraint=eastwest;rounded=0;shadow=0;html=0;" parent="Vf15_LbqZxq-rUc3vXgi-1" vertex="1">
          <mxGeometry y="130" width="180" height="26" as="geometry" />
        </mxCell>
        <mxCell id="Vf15_LbqZxq-rUc3vXgi-7" value="Дата создания (created_at)" style="text;align=left;verticalAlign=top;spacingLeft=4;spacingRight=4;overflow=hidden;rotatable=0;points=[[0,0.5],[1,0.5]];portConstraint=eastwest;rounded=0;shadow=0;html=0;" parent="Vf15_LbqZxq-rUc3vXgi-1" vertex="1">
          <mxGeometry y="156" width="180" height="26" as="geometry" />
        </mxCell>
        <mxCell id="Vf15_LbqZxq-rUc3vXgi-8" value="Дата изменения (updated_at)" style="text;align=left;verticalAlign=top;spacingLeft=4;spacingRight=4;overflow=hidden;rotatable=0;points=[[0,0.5],[1,0.5]];portConstraint=eastwest;rounded=0;shadow=0;html=0;" parent="Vf15_LbqZxq-rUc3vXgi-1" vertex="1">
          <mxGeometry y="182" width="180" height="26" as="geometry" />
        </mxCell>
        <mxCell id="Vf15_LbqZxq-rUc3vXgi-9" value="Администратор (administrator)" style="swimlane;fontStyle=0;align=center;verticalAlign=top;childLayout=stackLayout;horizontal=1;startSize=26;horizontalStack=0;resizeParent=1;resizeLast=0;collapsible=1;marginBottom=0;rounded=0;shadow=0;strokeWidth=1;" parent="1" vertex="1">
          <mxGeometry x="60" y="200" width="180" height="110" as="geometry">
            <mxRectangle x="340" y="380" width="170" height="26" as="alternateBounds" />
          </mxGeometry>
        </mxCell>
        <mxCell id="Vf15_LbqZxq-rUc3vXgi-10" value="ID админа (id_admin)" style="text;align=left;verticalAlign=top;spacingLeft=4;spacingRight=4;overflow=hidden;rotatable=0;points=[[0,0.5],[1,0.5]];portConstraint=eastwest;" parent="Vf15_LbqZxq-rUc3vXgi-9" vertex="1">
          <mxGeometry y="26" width="180" height="26" as="geometry" />
        </mxCell>
        <mxCell id="Vf15_LbqZxq-rUc3vXgi-11" value="ID пользователя (id_user)" style="text;align=left;verticalAlign=top;spacingLeft=4;spacingRight=4;overflow=hidden;rotatable=0;points=[[0,0.5],[1,0.5]];portConstraint=eastwest;" parent="Vf15_LbqZxq-rUc3vXgi-9" vertex="1">
          <mxGeometry y="52" width="180" height="26" as="geometry" />
        </mxCell>
        <mxCell id="Vf15_LbqZxq-rUc3vXgi-12" value="Статус админа (status)" style="text;align=left;verticalAlign=top;spacingLeft=4;spacingRight=4;overflow=hidden;rotatable=0;points=[[0,0.5],[1,0.5]];portConstraint=eastwest;" parent="Vf15_LbqZxq-rUc3vXgi-9" vertex="1">
          <mxGeometry y="78" width="180" height="26" as="geometry" />
        </mxCell>
        <mxCell id="Vf15_LbqZxq-rUc3vXgi-13" value="Преподаватель (teacher)" style="swimlane;fontStyle=0;align=center;verticalAlign=top;childLayout=stackLayout;horizontal=1;startSize=26;horizontalStack=0;resizeParent=1;resizeLast=0;collapsible=1;marginBottom=0;rounded=0;shadow=0;strokeWidth=1;" parent="1" vertex="1">
          <mxGeometry x="540" y="200" width="180" height="130" as="geometry">
            <mxRectangle x="550" y="140" width="160" height="26" as="alternateBounds" />
          </mxGeometry>
        </mxCell>
        <mxCell id="Vf15_LbqZxq-rUc3vXgi-14" value="ID преподавателя (id_teacher)" style="text;align=left;verticalAlign=top;spacingLeft=4;spacingRight=4;overflow=hidden;rotatable=0;points=[[0,0.5],[1,0.5]];portConstraint=eastwest;" parent="Vf15_LbqZxq-rUc3vXgi-13" vertex="1">
          <mxGeometry y="26" width="180" height="26" as="geometry" />
        </mxCell>
        <mxCell id="Vf15_LbqZxq-rUc3vXgi-15" value="ID пользователя (id_user)" style="text;align=left;verticalAlign=top;spacingLeft=4;spacingRight=4;overflow=hidden;rotatable=0;points=[[0,0.5],[1,0.5]];portConstraint=eastwest;rounded=0;shadow=0;html=0;" parent="Vf15_LbqZxq-rUc3vXgi-13" vertex="1">
          <mxGeometry y="52" width="180" height="26" as="geometry" />
        </mxCell>
        <mxCell id="Vf15_LbqZxq-rUc3vXgi-16" value="Должность (post_teacher)" style="text;align=left;verticalAlign=top;spacingLeft=4;spacingRight=4;overflow=hidden;rotatable=0;points=[[0,0.5],[1,0.5]];portConstraint=eastwest;rounded=0;shadow=0;html=0;" parent="Vf15_LbqZxq-rUc3vXgi-13" vertex="1">
          <mxGeometry y="78" width="180" height="26" as="geometry" />
        </mxCell>
        <mxCell id="Vf15_LbqZxq-rUc3vXgi-17" value="ID факультета (id_faculty)" style="text;align=left;verticalAlign=top;spacingLeft=4;spacingRight=4;overflow=hidden;rotatable=0;points=[[0,0.5],[1,0.5]];portConstraint=eastwest;rounded=0;shadow=0;html=0;" parent="Vf15_LbqZxq-rUc3vXgi-13" vertex="1">
          <mxGeometry y="104" width="180" height="26" as="geometry" />
        </mxCell>
        <mxCell id="Vf15_LbqZxq-rUc3vXgi-18" value="Студент (student)" style="swimlane;fontStyle=0;align=center;verticalAlign=top;childLayout=stackLayout;horizontal=1;startSize=26;horizontalStack=0;resizeParent=1;resizeLast=0;collapsible=1;marginBottom=0;rounded=0;shadow=0;strokeWidth=1;" parent="1" vertex="1">
          <mxGeometry x="520" y="400" width="210" height="140" as="geometry">
            <mxRectangle x="340" y="380" width="170" height="26" as="alternateBounds" />
          </mxGeometry>
        </mxCell>
        <mxCell id="Vf15_LbqZxq-rUc3vXgi-19" value="ID студента (id_student)" style="text;align=left;verticalAlign=top;spacingLeft=4;spacingRight=4;overflow=hidden;rotatable=0;points=[[0,0.5],[1,0.5]];portConstraint=eastwest;" parent="Vf15_LbqZxq-rUc3vXgi-18" vertex="1">
          <mxGeometry y="26" width="210" height="26" as="geometry" />
        </mxCell>
        <mxCell id="Vf15_LbqZxq-rUc3vXgi-20" value="ID пользователя (id_user)" style="text;align=left;verticalAlign=top;spacingLeft=4;spacingRight=4;overflow=hidden;rotatable=0;points=[[0,0.5],[1,0.5]];portConstraint=eastwest;" parent="Vf15_LbqZxq-rUc3vXgi-18" vertex="1">
          <mxGeometry y="52" width="210" height="26" as="geometry" />
        </mxCell>
        <mxCell id="Vf15_LbqZxq-rUc3vXgi-21" value="ID группы (id_group)" style="text;align=left;verticalAlign=top;spacingLeft=4;spacingRight=4;overflow=hidden;rotatable=0;points=[[0,0.5],[1,0.5]];portConstraint=eastwest;" parent="Vf15_LbqZxq-rUc3vXgi-18" vertex="1">
          <mxGeometry y="78" width="210" height="26" as="geometry" />
        </mxCell>
        <mxCell id="Vf15_LbqZxq-rUc3vXgi-22" value="Дата регистрации (enrollment_date)" style="text;align=left;verticalAlign=top;spacingLeft=4;spacingRight=4;overflow=hidden;rotatable=0;points=[[0,0.5],[1,0.5]];portConstraint=eastwest;" parent="Vf15_LbqZxq-rUc3vXgi-18" vertex="1">
          <mxGeometry y="104" width="210" height="26" as="geometry" />
        </mxCell>
        <mxCell id="Vf15_LbqZxq-rUc3vXgi-23" value="Вольнослушатель (auditor)" style="swimlane;fontStyle=0;align=center;verticalAlign=top;childLayout=stackLayout;horizontal=1;startSize=26;horizontalStack=0;resizeParent=1;resizeLast=0;collapsible=1;marginBottom=0;rounded=0;shadow=0;strokeWidth=1;" parent="1" vertex="1">
          <mxGeometry x="40" y="400" width="200" height="80" as="geometry">
            <mxRectangle x="220" y="120" width="160" height="26" as="alternateBounds" />
          </mxGeometry>
        </mxCell>
        <mxCell id="Vf15_LbqZxq-rUc3vXgi-24" value="ID пользователя (id_user)" style="text;align=left;verticalAlign=top;spacingLeft=4;spacingRight=4;overflow=hidden;rotatable=0;points=[[0,0.5],[1,0.5]];portConstraint=eastwest;" parent="Vf15_LbqZxq-rUc3vXgi-23" vertex="1">
          <mxGeometry y="26" width="200" height="26" as="geometry" />
        </mxCell>
        <mxCell id="Vf15_LbqZxq-rUc3vXgi-25" value="ID вольнослушателя (id_auditor)" style="text;align=left;verticalAlign=top;spacingLeft=4;spacingRight=4;overflow=hidden;rotatable=0;points=[[0,0.5],[1,0.5]];portConstraint=eastwest;" parent="Vf15_LbqZxq-rUc3vXgi-23" vertex="1">
          <mxGeometry y="52" width="200" height="26" as="geometry" />
        </mxCell>
        <mxCell id="Vf15_LbqZxq-rUc3vXgi-26" value="Личный кабинет (user_profile)" style="swimlane;fontStyle=0;align=center;verticalAlign=top;childLayout=stackLayout;horizontal=1;startSize=26;horizontalStack=0;resizeParent=1;resizeLast=0;collapsible=1;marginBottom=0;rounded=0;shadow=0;strokeWidth=1;" parent="1" vertex="1">
          <mxGeometry x="290" y="120" width="180" height="80" as="geometry">
            <mxRectangle x="340" y="380" width="170" height="26" as="alternateBounds" />
          </mxGeometry>
        </mxCell>
        <mxCell id="Vf15_LbqZxq-rUc3vXgi-27" value="ID пользователя (id_user)" style="text;align=left;verticalAlign=top;spacingLeft=4;spacingRight=4;overflow=hidden;rotatable=0;points=[[0,0.5],[1,0.5]];portConstraint=eastwest;" parent="Vf15_LbqZxq-rUc3vXgi-26" vertex="1">
          <mxGeometry y="26" width="180" height="26" as="geometry" />
        </mxCell>
        <mxCell id="Vf15_LbqZxq-rUc3vXgi-28" value="Контакты (contacts)" style="text;align=left;verticalAlign=top;spacingLeft=4;spacingRight=4;overflow=hidden;rotatable=0;points=[[0,0.5],[1,0.5]];portConstraint=eastwest;" parent="Vf15_LbqZxq-rUc3vXgi-26" vertex="1">
          <mxGeometry y="52" width="180" height="26" as="geometry" />
        </mxCell>
        <mxCell id="Vf15_LbqZxq-rUc3vXgi-29" value="" style="endArrow=ERone;shadow=0;strokeWidth=1;rounded=0;endFill=0;startArrow=ERone;startFill=0;entryX=0;entryY=0.5;entryDx=0;entryDy=0;edgeStyle=orthogonalEdgeStyle;exitX=1;exitY=0.5;exitDx=0;exitDy=0;" parent="1" source="Vf15_LbqZxq-rUc3vXgi-11" target="Vf15_LbqZxq-rUc3vXgi-2" edge="1">
          <mxGeometry x="0.5" y="41" relative="1" as="geometry">
            <mxPoint x="280" y="270" as="sourcePoint" />
            <mxPoint x="300" y="260" as="targetPoint" />
            <mxPoint x="-40" y="32" as="offset" />
          </mxGeometry>
        </mxCell>
        <mxCell id="Vf15_LbqZxq-rUc3vXgi-30" value="" style="endArrow=ERone;shadow=0;strokeWidth=1;rounded=0;endFill=0;startArrow=ERone;startFill=0;entryX=0;entryY=0.5;entryDx=0;entryDy=0;edgeStyle=orthogonalEdgeStyle;exitX=1;exitY=0.5;exitDx=0;exitDy=0;" parent="1" source="Vf15_LbqZxq-rUc3vXgi-24" target="Vf15_LbqZxq-rUc3vXgi-2" edge="1">
          <mxGeometry x="0.5" y="41" relative="1" as="geometry">
            <mxPoint x="260" y="440" as="sourcePoint" />
            <mxPoint x="270" y="454" as="targetPoint" />
            <mxPoint x="-40" y="32" as="offset" />
            <Array as="points">
              <mxPoint x="270" y="439" />
              <mxPoint x="270" y="359" />
            </Array>
          </mxGeometry>
        </mxCell>
        <mxCell id="Vf15_LbqZxq-rUc3vXgi-31" value="" style="endArrow=ERone;shadow=0;strokeWidth=1;rounded=0;endFill=0;startArrow=ERone;startFill=0;entryX=0;entryY=0.5;entryDx=0;entryDy=0;edgeStyle=orthogonalEdgeStyle;exitX=1;exitY=0.5;exitDx=0;exitDy=0;" parent="1" source="Vf15_LbqZxq-rUc3vXgi-2" target="Vf15_LbqZxq-rUc3vXgi-15" edge="1">
          <mxGeometry x="0.5" y="41" relative="1" as="geometry">
            <mxPoint x="450" y="280" as="sourcePoint" />
            <mxPoint x="530" y="374" as="targetPoint" />
            <mxPoint x="-40" y="32" as="offset" />
            <Array as="points">
              <mxPoint x="530" y="359" />
              <mxPoint x="530" y="265" />
            </Array>
          </mxGeometry>
        </mxCell>
        <mxCell id="Vf15_LbqZxq-rUc3vXgi-32" value="" style="endArrow=ERone;shadow=0;strokeWidth=1;rounded=0;endFill=0;startArrow=ERone;startFill=0;entryX=0;entryY=0.5;entryDx=0;entryDy=0;edgeStyle=orthogonalEdgeStyle;exitX=1;exitY=0.5;exitDx=0;exitDy=0;" parent="1" source="Vf15_LbqZxq-rUc3vXgi-2" target="Vf15_LbqZxq-rUc3vXgi-20" edge="1">
          <mxGeometry x="0.5" y="41" relative="1" as="geometry">
            <mxPoint x="440" y="511.75" as="sourcePoint" />
            <mxPoint x="520" y="417.75" as="targetPoint" />
            <mxPoint x="-40" y="32" as="offset" />
          </mxGeometry>
        </mxCell>
        <mxCell id="Vf15_LbqZxq-rUc3vXgi-33" value="" style="endArrow=ERone;shadow=0;strokeWidth=1;rounded=0;endFill=0;startArrow=ERone;startFill=0;entryX=0;entryY=0.5;entryDx=0;entryDy=0;edgeStyle=orthogonalEdgeStyle;exitX=0;exitY=0.5;exitDx=0;exitDy=0;" parent="1" source="Vf15_LbqZxq-rUc3vXgi-2" target="Vf15_LbqZxq-rUc3vXgi-27" edge="1">
          <mxGeometry x="0.5" y="41" relative="1" as="geometry">
            <mxPoint x="210" y="230" as="sourcePoint" />
            <mxPoint x="290" y="150" as="targetPoint" />
            <mxPoint x="-40" y="32" as="offset" />
            <Array as="points">
              <mxPoint x="280" y="359" />
              <mxPoint x="280" y="159" />
            </Array>
          </mxGeometry>
        </mxCell>
        <mxCell id="Vf15_LbqZxq-rUc3vXgi-34" value="Настройки увед. (notification_settings)" style="swimlane;fontStyle=0;align=center;verticalAlign=top;childLayout=stackLayout;horizontal=1;startSize=26;horizontalStack=0;resizeParent=1;resizeLast=0;collapsible=1;marginBottom=0;rounded=0;shadow=0;strokeWidth=1;" parent="1" vertex="1">
          <mxGeometry x="290" y="582" width="280" height="156" as="geometry">
            <mxRectangle x="340" y="380" width="170" height="26" as="alternateBounds" />
          </mxGeometry>
        </mxCell>
        <mxCell id="Vf15_LbqZxq-rUc3vXgi-35" value="ID пользователя (id_user)" style="text;align=left;verticalAlign=top;spacingLeft=4;spacingRight=4;overflow=hidden;rotatable=0;points=[[0,0.5],[1,0.5]];portConstraint=eastwest;" parent="Vf15_LbqZxq-rUc3vXgi-34" vertex="1">
          <mxGeometry y="26" width="280" height="26" as="geometry" />
        </mxCell>
        <mxCell id="Vf15_LbqZxq-rUc3vXgi-36" value="Увед. о новых заданиях (notification_new_task)" style="text;align=left;verticalAlign=top;spacingLeft=4;spacingRight=4;overflow=hidden;rotatable=0;points=[[0,0.5],[1,0.5]];portConstraint=eastwest;" parent="Vf15_LbqZxq-rUc3vXgi-34" vertex="1">
          <mxGeometry y="52" width="280" height="26" as="geometry" />
        </mxCell>
        <mxCell id="Vf15_LbqZxq-rUc3vXgi-37" value="Увед. о новых тестах (notification_new_test)" style="text;align=left;verticalAlign=top;spacingLeft=4;spacingRight=4;overflow=hidden;rotatable=0;points=[[0,0.5],[1,0.5]];portConstraint=eastwest;" parent="Vf15_LbqZxq-rUc3vXgi-34" vertex="1">
          <mxGeometry y="78" width="280" height="26" as="geometry" />
        </mxCell>
        <mxCell id="Vf15_LbqZxq-rUc3vXgi-38" value="Увед. о результатах (grade_notification)" style="text;align=left;verticalAlign=top;spacingLeft=4;spacingRight=4;overflow=hidden;rotatable=0;points=[[0,0.5],[1,0.5]];portConstraint=eastwest;" parent="Vf15_LbqZxq-rUc3vXgi-34" vertex="1">
          <mxGeometry y="104" width="280" height="26" as="geometry" />
        </mxCell>
        <mxCell id="Vf15_LbqZxq-rUc3vXgi-39" value="Увед. о дедлайне (deadline_reminder)" style="text;align=left;verticalAlign=top;spacingLeft=4;spacingRight=4;overflow=hidden;rotatable=0;points=[[0,0.5],[1,0.5]];portConstraint=eastwest;" parent="Vf15_LbqZxq-rUc3vXgi-34" vertex="1">
          <mxGeometry y="130" width="280" height="26" as="geometry" />
        </mxCell>
        <mxCell id="Vf15_LbqZxq-rUc3vXgi-40" value="" style="endArrow=ERone;shadow=0;strokeWidth=1;rounded=0;endFill=0;startArrow=ERone;startFill=0;edgeStyle=orthogonalEdgeStyle;exitX=1;exitY=0.5;exitDx=0;exitDy=0;entryX=1;entryY=0.5;entryDx=0;entryDy=0;" parent="1" source="Vf15_LbqZxq-rUc3vXgi-35" target="Vf15_LbqZxq-rUc3vXgi-2" edge="1">
          <mxGeometry x="0.5" y="41" relative="1" as="geometry">
            <mxPoint x="480" y="585" as="sourcePoint" />
            <mxPoint x="510" y="350" as="targetPoint" />
            <mxPoint x="-40" y="32" as="offset" />
            <Array as="points">
              <mxPoint x="600" y="621" />
              <mxPoint x="600" y="570" />
              <mxPoint x="510" y="570" />
              <mxPoint x="510" y="359" />
            </Array>
          </mxGeometry>
        </mxCell>
        <mxCell id="Vf15_LbqZxq-rUc3vXgi-41" value="Факультет (faculty)" style="swimlane;fontStyle=0;align=center;verticalAlign=top;childLayout=stackLayout;horizontal=1;startSize=26;horizontalStack=0;resizeParent=1;resizeLast=0;collapsible=1;marginBottom=0;rounded=0;shadow=0;strokeWidth=1;" parent="1" vertex="1">
          <mxGeometry x="800" y="200" width="160" height="90" as="geometry">
            <mxRectangle x="550" y="140" width="160" height="26" as="alternateBounds" />
          </mxGeometry>
        </mxCell>
        <mxCell id="Vf15_LbqZxq-rUc3vXgi-42" value="ID факультета (id_faculty)" style="text;align=left;verticalAlign=top;spacingLeft=4;spacingRight=4;overflow=hidden;rotatable=0;points=[[0,0.5],[1,0.5]];portConstraint=eastwest;" parent="Vf15_LbqZxq-rUc3vXgi-41" vertex="1">
          <mxGeometry y="26" width="160" height="26" as="geometry" />
        </mxCell>
        <mxCell id="Vf15_LbqZxq-rUc3vXgi-43" value="Название (faculty_name)" style="text;align=left;verticalAlign=top;spacingLeft=4;spacingRight=4;overflow=hidden;rotatable=0;points=[[0,0.5],[1,0.5]];portConstraint=eastwest;" parent="Vf15_LbqZxq-rUc3vXgi-41" vertex="1">
          <mxGeometry y="52" width="160" height="26" as="geometry" />
        </mxCell>
        <mxCell id="Vf15_LbqZxq-rUc3vXgi-44" value="Подразделение (division)" style="swimlane;fontStyle=0;align=center;verticalAlign=top;childLayout=stackLayout;horizontal=1;startSize=26;horizontalStack=0;resizeParent=1;resizeLast=0;collapsible=1;marginBottom=0;rounded=0;shadow=0;strokeWidth=1;" parent="1" vertex="1">
          <mxGeometry x="800" width="180" height="120" as="geometry">
            <mxRectangle x="550" y="140" width="160" height="26" as="alternateBounds" />
          </mxGeometry>
        </mxCell>
        <mxCell id="Vf15_LbqZxq-rUc3vXgi-45" value="ID подразделения (id_division)" style="text;align=left;verticalAlign=top;spacingLeft=4;spacingRight=4;overflow=hidden;rotatable=0;points=[[0,0.5],[1,0.5]];portConstraint=eastwest;" parent="Vf15_LbqZxq-rUc3vXgi-44" vertex="1">
          <mxGeometry y="26" width="180" height="26" as="geometry" />
        </mxCell>
        <mxCell id="Vf15_LbqZxq-rUc3vXgi-46" value="ID факультета (id_faculty)" style="text;align=left;verticalAlign=top;spacingLeft=4;spacingRight=4;overflow=hidden;rotatable=0;points=[[0,0.5],[1,0.5]];portConstraint=eastwest;" parent="Vf15_LbqZxq-rUc3vXgi-44" vertex="1">
          <mxGeometry y="52" width="180" height="26" as="geometry" />
        </mxCell>
        <mxCell id="Vf15_LbqZxq-rUc3vXgi-47" value="Кафедра (department)" style="text;align=left;verticalAlign=top;spacingLeft=4;spacingRight=4;overflow=hidden;rotatable=0;points=[[0,0.5],[1,0.5]];portConstraint=eastwest;" parent="Vf15_LbqZxq-rUc3vXgi-44" vertex="1">
          <mxGeometry y="78" width="180" height="26" as="geometry" />
        </mxCell>
        <mxCell id="Vf15_LbqZxq-rUc3vXgi-48" value="Кафедра преподавателя (teacher_division)" style="swimlane;fontStyle=0;align=center;verticalAlign=top;childLayout=stackLayout;horizontal=1;startSize=26;horizontalStack=0;resizeParent=1;resizeLast=0;collapsible=1;marginBottom=0;rounded=0;shadow=0;strokeWidth=1;" parent="1" vertex="1">
          <mxGeometry x="490" y="40" width="240" height="80" as="geometry">
            <mxRectangle x="550" y="140" width="160" height="26" as="alternateBounds" />
          </mxGeometry>
        </mxCell>
        <mxCell id="Vf15_LbqZxq-rUc3vXgi-49" value="ID преподавателя (id_teacher)" style="text;align=left;verticalAlign=top;spacingLeft=4;spacingRight=4;overflow=hidden;rotatable=0;points=[[0,0.5],[1,0.5]];portConstraint=eastwest;" parent="Vf15_LbqZxq-rUc3vXgi-48" vertex="1">
          <mxGeometry y="26" width="240" height="26" as="geometry" />
        </mxCell>
        <mxCell id="Vf15_LbqZxq-rUc3vXgi-50" value="ID подразделения (id_division)" style="text;align=left;verticalAlign=top;spacingLeft=4;spacingRight=4;overflow=hidden;rotatable=0;points=[[0,0.5],[1,0.5]];portConstraint=eastwest;" parent="Vf15_LbqZxq-rUc3vXgi-48" vertex="1">
          <mxGeometry y="52" width="240" height="26" as="geometry" />
        </mxCell>
        <mxCell id="Vf15_LbqZxq-rUc3vXgi-51" value="Группа (student_group)" style="swimlane;fontStyle=0;align=center;verticalAlign=top;childLayout=stackLayout;horizontal=1;startSize=26;horizontalStack=0;resizeParent=1;resizeLast=0;collapsible=1;marginBottom=0;rounded=0;shadow=0;strokeWidth=1;" parent="1" vertex="1">
          <mxGeometry x="790" y="400" width="200" height="156" as="geometry">
            <mxRectangle x="340" y="380" width="170" height="26" as="alternateBounds" />
          </mxGeometry>
        </mxCell>
        <mxCell id="Vf15_LbqZxq-rUc3vXgi-52" value="ID группы (id_group)" style="text;align=left;verticalAlign=top;spacingLeft=4;spacingRight=4;overflow=hidden;rotatable=0;points=[[0,0.5],[1,0.5]];portConstraint=eastwest;" parent="Vf15_LbqZxq-rUc3vXgi-51" vertex="1">
          <mxGeometry y="26" width="200" height="26" as="geometry" />
        </mxCell>
        <mxCell id="Vf15_LbqZxq-rUc3vXgi-53" value="Название группы (name_group)" style="text;align=left;verticalAlign=top;spacingLeft=4;spacingRight=4;overflow=hidden;rotatable=0;points=[[0,0.5],[1,0.5]];portConstraint=eastwest;" parent="Vf15_LbqZxq-rUc3vXgi-51" vertex="1">
          <mxGeometry y="52" width="200" height="26" as="geometry" />
        </mxCell>
        <mxCell id="Vf15_LbqZxq-rUc3vXgi-54" value="Номер курса (course_number)" style="text;align=left;verticalAlign=top;spacingLeft=4;spacingRight=4;overflow=hidden;rotatable=0;points=[[0,0.5],[1,0.5]];portConstraint=eastwest;" parent="Vf15_LbqZxq-rUc3vXgi-51" vertex="1">
          <mxGeometry y="78" width="200" height="26" as="geometry" />
        </mxCell>
        <mxCell id="Vf15_LbqZxq-rUc3vXgi-55" value="Форма обучения (form_education)" style="text;align=left;verticalAlign=top;spacingLeft=4;spacingRight=4;overflow=hidden;rotatable=0;points=[[0,0.5],[1,0.5]];portConstraint=eastwest;" parent="Vf15_LbqZxq-rUc3vXgi-51" vertex="1">
          <mxGeometry y="104" width="200" height="26" as="geometry" />
        </mxCell>
        <mxCell id="Vf15_LbqZxq-rUc3vXgi-56" value="ID факультета (id_faculty)" style="text;align=left;verticalAlign=top;spacingLeft=4;spacingRight=4;overflow=hidden;rotatable=0;points=[[0,0.5],[1,0.5]];portConstraint=eastwest;rounded=0;shadow=0;html=0;" parent="Vf15_LbqZxq-rUc3vXgi-51" vertex="1">
          <mxGeometry y="130" width="200" height="26" as="geometry" />
        </mxCell>
        <mxCell id="Vf15_LbqZxq-rUc3vXgi-57" value="Курс (course)" style="swimlane;fontStyle=0;align=center;verticalAlign=top;childLayout=stackLayout;horizontal=1;startSize=26;horizontalStack=0;resizeParent=1;resizeLast=0;collapsible=1;marginBottom=0;rounded=0;shadow=0;strokeWidth=1;" parent="1" vertex="1">
          <mxGeometry x="1270" y="200" width="180" height="208" as="geometry">
            <mxRectangle x="130" y="380" width="160" height="26" as="alternateBounds" />
          </mxGeometry>
        </mxCell>
        <mxCell id="Vf15_LbqZxq-rUc3vXgi-58" value="ID курса (id_course)" style="text;align=left;verticalAlign=top;spacingLeft=4;spacingRight=4;overflow=hidden;rotatable=0;points=[[0,0.5],[1,0.5]];portConstraint=eastwest;" parent="Vf15_LbqZxq-rUc3vXgi-57" vertex="1">
          <mxGeometry y="26" width="180" height="26" as="geometry" />
        </mxCell>
        <mxCell id="Vf15_LbqZxq-rUc3vXgi-59" value="Название (name_course)" style="text;align=left;verticalAlign=top;spacingLeft=4;spacingRight=4;overflow=hidden;rotatable=0;points=[[0,0.5],[1,0.5]];portConstraint=eastwest;rounded=0;shadow=0;html=0;" parent="Vf15_LbqZxq-rUc3vXgi-57" vertex="1">
          <mxGeometry y="52" width="180" height="26" as="geometry" />
        </mxCell>
        <mxCell id="Vf15_LbqZxq-rUc3vXgi-60" value="Описание (description_course)" style="text;align=left;verticalAlign=top;spacingLeft=4;spacingRight=4;overflow=hidden;rotatable=0;points=[[0,0.5],[1,0.5]];portConstraint=eastwest;rounded=0;shadow=0;html=0;" parent="Vf15_LbqZxq-rUc3vXgi-57" vertex="1">
          <mxGeometry y="78" width="180" height="26" as="geometry" />
        </mxCell>
        <mxCell id="Vf15_LbqZxq-rUc3vXgi-61" value="ID года (id_year)" style="text;align=left;verticalAlign=top;spacingLeft=4;spacingRight=4;overflow=hidden;rotatable=0;points=[[0,0.5],[1,0.5]];portConstraint=eastwest;rounded=0;shadow=0;html=0;" parent="Vf15_LbqZxq-rUc3vXgi-57" vertex="1">
          <mxGeometry y="104" width="180" height="26" as="geometry" />
        </mxCell>
        <mxCell id="Vf15_LbqZxq-rUc3vXgi-62" value="ID преподавателя (id_teacher)" style="text;align=left;verticalAlign=top;spacingLeft=4;spacingRight=4;overflow=hidden;rotatable=0;points=[[0,0.5],[1,0.5]];portConstraint=eastwest;rounded=0;shadow=0;html=0;" parent="Vf15_LbqZxq-rUc3vXgi-57" vertex="1">
          <mxGeometry y="130" width="180" height="26" as="geometry" />
        </mxCell>
        <mxCell id="Vf15_LbqZxq-rUc3vXgi-63" value="ID группы (id_group)" style="text;align=left;verticalAlign=top;spacingLeft=4;spacingRight=4;overflow=hidden;rotatable=0;points=[[0,0.5],[1,0.5]];portConstraint=eastwest;rounded=0;shadow=0;html=0;" parent="Vf15_LbqZxq-rUc3vXgi-57" vertex="1">
          <mxGeometry y="156" width="180" height="26" as="geometry" />
        </mxCell>
        <mxCell id="Vf15_LbqZxq-rUc3vXgi-64" value="Дата создания (created_at)" style="text;align=left;verticalAlign=top;spacingLeft=4;spacingRight=4;overflow=hidden;rotatable=0;points=[[0,0.5],[1,0.5]];portConstraint=eastwest;" parent="Vf15_LbqZxq-rUc3vXgi-57" vertex="1">
          <mxGeometry y="182" width="180" height="26" as="geometry" />
        </mxCell>
        <mxCell id="Vf15_LbqZxq-rUc3vXgi-65" value="Запись на курс (course_enrollment)" style="swimlane;fontStyle=0;align=center;verticalAlign=top;childLayout=stackLayout;horizontal=1;startSize=26;horizontalStack=0;resizeParent=1;resizeLast=0;collapsible=1;marginBottom=0;rounded=0;shadow=0;strokeWidth=1;" parent="1" vertex="1">
          <mxGeometry x="1000" y="170" width="210" height="110" as="geometry">
            <mxRectangle x="340" y="380" width="170" height="26" as="alternateBounds" />
          </mxGeometry>
        </mxCell>
        <mxCell id="Vf15_LbqZxq-rUc3vXgi-66" value="ID курса (id_course)" style="text;align=left;verticalAlign=top;spacingLeft=4;spacingRight=4;overflow=hidden;rotatable=0;points=[[0,0.5],[1,0.5]];portConstraint=eastwest;" parent="Vf15_LbqZxq-rUc3vXgi-65" vertex="1">
          <mxGeometry y="26" width="210" height="26" as="geometry" />
        </mxCell>
        <mxCell id="Vf15_LbqZxq-rUc3vXgi-67" value="ID студента (id_student)" style="text;align=left;verticalAlign=top;spacingLeft=4;spacingRight=4;overflow=hidden;rotatable=0;points=[[0,0.5],[1,0.5]];portConstraint=eastwest;" parent="Vf15_LbqZxq-rUc3vXgi-65" vertex="1">
          <mxGeometry y="52" width="210" height="26" as="geometry" />
        </mxCell>
        <mxCell id="Vf15_LbqZxq-rUc3vXgi-68" value="Время записи (enrolled_at)" style="text;align=left;verticalAlign=top;spacingLeft=4;spacingRight=4;overflow=hidden;rotatable=0;points=[[0,0.5],[1,0.5]];portConstraint=eastwest;" parent="Vf15_LbqZxq-rUc3vXgi-65" vertex="1">
          <mxGeometry y="78" width="210" height="26" as="geometry" />
        </mxCell>
        <mxCell id="Vf15_LbqZxq-rUc3vXgi-69" value="Заявка на курс (course_application)" style="swimlane;fontStyle=0;align=center;verticalAlign=top;childLayout=stackLayout;horizontal=1;startSize=26;horizontalStack=0;resizeParent=1;resizeLast=0;collapsible=1;marginBottom=0;rounded=0;shadow=0;strokeWidth=1;" parent="1" vertex="1">
          <mxGeometry x="1030" y="400" width="200" height="182" as="geometry">
            <mxRectangle x="340" y="380" width="170" height="26" as="alternateBounds" />
          </mxGeometry>
        </mxCell>
        <mxCell id="Vf15_LbqZxq-rUc3vXgi-70" value="ID курса (id_course)" style="text;align=left;verticalAlign=top;spacingLeft=4;spacingRight=4;overflow=hidden;rotatable=0;points=[[0,0.5],[1,0.5]];portConstraint=eastwest;" parent="Vf15_LbqZxq-rUc3vXgi-69" vertex="1">
          <mxGeometry y="26" width="200" height="26" as="geometry" />
        </mxCell>
        <mxCell id="Vf15_LbqZxq-rUc3vXgi-71" value="ID вольнослушателя (id_auditor)" style="text;align=left;verticalAlign=top;spacingLeft=4;spacingRight=4;overflow=hidden;rotatable=0;points=[[0,0.5],[1,0.5]];portConstraint=eastwest;" parent="Vf15_LbqZxq-rUc3vXgi-69" vertex="1">
          <mxGeometry y="52" width="200" height="26" as="geometry" />
        </mxCell>
        <mxCell id="Vf15_LbqZxq-rUc3vXgi-72" value="Статус заявки (status)" style="text;align=left;verticalAlign=top;spacingLeft=4;spacingRight=4;overflow=hidden;rotatable=0;points=[[0,0.5],[1,0.5]];portConstraint=eastwest;" parent="Vf15_LbqZxq-rUc3vXgi-69" vertex="1">
          <mxGeometry y="78" width="200" height="26" as="geometry" />
        </mxCell>
        <mxCell id="Vf15_LbqZxq-rUc3vXgi-73" value="Время подачи (applied_at)" style="text;align=left;verticalAlign=top;spacingLeft=4;spacingRight=4;overflow=hidden;rotatable=0;points=[[0,0.5],[1,0.5]];portConstraint=eastwest;" parent="Vf15_LbqZxq-rUc3vXgi-69" vertex="1">
          <mxGeometry y="104" width="200" height="26" as="geometry" />
        </mxCell>
        <mxCell id="Vf15_LbqZxq-rUc3vXgi-74" value="Время одобрения (processed_at)" style="text;align=left;verticalAlign=top;spacingLeft=4;spacingRight=4;overflow=hidden;rotatable=0;points=[[0,0.5],[1,0.5]];portConstraint=eastwest;" parent="Vf15_LbqZxq-rUc3vXgi-69" vertex="1">
          <mxGeometry y="130" width="200" height="26" as="geometry" />
        </mxCell>
        <mxCell id="Vf15_LbqZxq-rUc3vXgi-75" value="Кем принято (processed_by)" style="text;align=left;verticalAlign=top;spacingLeft=4;spacingRight=4;overflow=hidden;rotatable=0;points=[[0,0.5],[1,0.5]];portConstraint=eastwest;" parent="Vf15_LbqZxq-rUc3vXgi-69" vertex="1">
          <mxGeometry y="156" width="200" height="26" as="geometry" />
        </mxCell>
        <mxCell id="Vf15_LbqZxq-rUc3vXgi-76" value="Материал курса (course_material)" style="swimlane;fontStyle=0;align=center;verticalAlign=top;childLayout=stackLayout;horizontal=1;startSize=26;horizontalStack=0;resizeParent=1;resizeLast=0;collapsible=1;marginBottom=0;rounded=0;shadow=0;strokeWidth=1;" parent="1" vertex="1">
          <mxGeometry x="1520" y="-40" width="190" height="208" as="geometry">
            <mxRectangle x="340" y="380" width="170" height="26" as="alternateBounds" />
          </mxGeometry>
        </mxCell>
        <mxCell id="Vf15_LbqZxq-rUc3vXgi-77" value="ID материала (id_material)" style="text;align=left;verticalAlign=top;spacingLeft=4;spacingRight=4;overflow=hidden;rotatable=0;points=[[0,0.5],[1,0.5]];portConstraint=eastwest;" parent="Vf15_LbqZxq-rUc3vXgi-76" vertex="1">
          <mxGeometry y="26" width="190" height="26" as="geometry" />
        </mxCell>
        <mxCell id="Vf15_LbqZxq-rUc3vXgi-78" value="Тип (type)" style="text;align=left;verticalAlign=top;spacingLeft=4;spacingRight=4;overflow=hidden;rotatable=0;points=[[0,0.5],[1,0.5]];portConstraint=eastwest;" parent="Vf15_LbqZxq-rUc3vXgi-76" vertex="1">
          <mxGeometry y="52" width="190" height="26" as="geometry" />
        </mxCell>
        <mxCell id="Vf15_LbqZxq-rUc3vXgi-79" value="Содержание (content_material)" style="text;align=left;verticalAlign=top;spacingLeft=4;spacingRight=4;overflow=hidden;rotatable=0;points=[[0,0.5],[1,0.5]];portConstraint=eastwest;" parent="Vf15_LbqZxq-rUc3vXgi-76" vertex="1">
          <mxGeometry y="78" width="190" height="26" as="geometry" />
        </mxCell>
        <mxCell id="Vf15_LbqZxq-rUc3vXgi-80" value="Дата создания (created_at)" style="text;align=left;verticalAlign=top;spacingLeft=4;spacingRight=4;overflow=hidden;rotatable=0;points=[[0,0.5],[1,0.5]];portConstraint=eastwest;" parent="Vf15_LbqZxq-rUc3vXgi-76" vertex="1">
          <mxGeometry y="104" width="190" height="26" as="geometry" />
        </mxCell>
        <mxCell id="Vf15_LbqZxq-rUc3vXgi-81" value="Файл материала (file_url)" style="text;align=left;verticalAlign=top;spacingLeft=4;spacingRight=4;overflow=hidden;rotatable=0;points=[[0,0.5],[1,0.5]];portConstraint=eastwest;" parent="Vf15_LbqZxq-rUc3vXgi-76" vertex="1">
          <mxGeometry y="130" width="190" height="26" as="geometry" />
        </mxCell>
        <mxCell id="Vf15_LbqZxq-rUc3vXgi-82" value="ID курса (id_course)" style="text;align=left;verticalAlign=top;spacingLeft=4;spacingRight=4;overflow=hidden;rotatable=0;points=[[0,0.5],[1,0.5]];portConstraint=eastwest;" parent="Vf15_LbqZxq-rUc3vXgi-76" vertex="1">
          <mxGeometry y="156" width="190" height="26" as="geometry" />
        </mxCell>
        <mxCell id="Vf15_LbqZxq-rUc3vXgi-83" value="ID модуля (id_module)" style="text;align=left;verticalAlign=top;spacingLeft=4;spacingRight=4;overflow=hidden;rotatable=0;points=[[0,0.5],[1,0.5]];portConstraint=eastwest;" parent="Vf15_LbqZxq-rUc3vXgi-76" vertex="1">
          <mxGeometry y="182" width="190" height="26" as="geometry" />
        </mxCell>
        <mxCell id="Vf15_LbqZxq-rUc3vXgi-84" value="Модули курса (course_module)" style="swimlane;fontStyle=0;align=center;verticalAlign=top;childLayout=stackLayout;horizontal=1;startSize=26;horizontalStack=0;resizeParent=1;resizeLast=0;collapsible=1;marginBottom=0;rounded=0;shadow=0;strokeWidth=1;" parent="1" vertex="1">
          <mxGeometry x="1570" y="200" width="220" height="156" as="geometry">
            <mxRectangle x="340" y="380" width="170" height="26" as="alternateBounds" />
          </mxGeometry>
        </mxCell>
        <mxCell id="Vf15_LbqZxq-rUc3vXgi-85" value="ID модуля (id_module)" style="text;align=left;verticalAlign=top;spacingLeft=4;spacingRight=4;overflow=hidden;rotatable=0;points=[[0,0.5],[1,0.5]];portConstraint=eastwest;" parent="Vf15_LbqZxq-rUc3vXgi-84" vertex="1">
          <mxGeometry y="26" width="220" height="26" as="geometry" />
        </mxCell>
        <mxCell id="Vf15_LbqZxq-rUc3vXgi-86" value="ID курса (id_course)" style="text;align=left;verticalAlign=top;spacingLeft=4;spacingRight=4;overflow=hidden;rotatable=0;points=[[0,0.5],[1,0.5]];portConstraint=eastwest;" parent="Vf15_LbqZxq-rUc3vXgi-84" vertex="1">
          <mxGeometry y="52" width="220" height="26" as="geometry" />
        </mxCell>
        <mxCell id="Vf15_LbqZxq-rUc3vXgi-87" value="Название модуля (name_module)" style="text;align=left;verticalAlign=top;spacingLeft=4;spacingRight=4;overflow=hidden;rotatable=0;points=[[0,0.5],[1,0.5]];portConstraint=eastwest;" parent="Vf15_LbqZxq-rUc3vXgi-84" vertex="1">
          <mxGeometry y="78" width="220" height="26" as="geometry" />
        </mxCell>
        <mxCell id="Vf15_LbqZxq-rUc3vXgi-88" value="Описание (description_module)" style="text;align=left;verticalAlign=top;spacingLeft=4;spacingRight=4;overflow=hidden;rotatable=0;points=[[0,0.5],[1,0.5]];portConstraint=eastwest;" parent="Vf15_LbqZxq-rUc3vXgi-84" vertex="1">
          <mxGeometry y="104" width="220" height="26" as="geometry" />
        </mxCell>
        <mxCell id="Vf15_LbqZxq-rUc3vXgi-89" value="Порядок (sequence_number_module)" style="text;align=left;verticalAlign=top;spacingLeft=4;spacingRight=4;overflow=hidden;rotatable=0;points=[[0,0.5],[1,0.5]];portConstraint=eastwest;" parent="Vf15_LbqZxq-rUc3vXgi-84" vertex="1">
          <mxGeometry y="130" width="220" height="26" as="geometry" />
        </mxCell>
        <mxCell id="Vf15_LbqZxq-rUc3vXgi-90" value="Настройки курса (course_settings)" style="swimlane;fontStyle=0;align=center;verticalAlign=top;childLayout=stackLayout;horizontal=1;startSize=26;horizontalStack=0;resizeParent=1;resizeLast=0;collapsible=1;marginBottom=0;rounded=0;shadow=0;strokeWidth=1;" parent="1" vertex="1">
          <mxGeometry x="1520" y="-160" width="320" height="104" as="geometry">
            <mxRectangle x="340" y="380" width="170" height="26" as="alternateBounds" />
          </mxGeometry>
        </mxCell>
        <mxCell id="Vf15_LbqZxq-rUc3vXgi-91" value="ID курса (id_course)" style="text;align=left;verticalAlign=top;spacingLeft=4;spacingRight=4;overflow=hidden;rotatable=0;points=[[0,0.5],[1,0.5]];portConstraint=eastwest;" parent="Vf15_LbqZxq-rUc3vXgi-90" vertex="1">
          <mxGeometry y="26" width="320" height="26" as="geometry" />
        </mxCell>
        <mxCell id="Vf15_LbqZxq-rUc3vXgi-92" value="Видимость (visibility)" style="text;align=left;verticalAlign=top;spacingLeft=4;spacingRight=4;overflow=hidden;rotatable=0;points=[[0,0.5],[1,0.5]];portConstraint=eastwest;" parent="Vf15_LbqZxq-rUc3vXgi-90" vertex="1">
          <mxGeometry y="52" width="320" height="26" as="geometry" />
        </mxCell>
        <mxCell id="Vf15_LbqZxq-rUc3vXgi-93" value="Самостоятельная запись да/нет (allow_self_enrollment)" style="text;align=left;verticalAlign=top;spacingLeft=4;spacingRight=4;overflow=hidden;rotatable=0;points=[[0,0.5],[1,0.5]];portConstraint=eastwest;" parent="Vf15_LbqZxq-rUc3vXgi-90" vertex="1">
          <mxGeometry y="78" width="320" height="26" as="geometry" />
        </mxCell>
        <mxCell id="Vf15_LbqZxq-rUc3vXgi-94" value="Архив курса (course_archive)" style="swimlane;fontStyle=0;align=center;verticalAlign=top;childLayout=stackLayout;horizontal=1;startSize=26;horizontalStack=0;resizeParent=1;resizeLast=0;collapsible=1;marginBottom=0;rounded=0;shadow=0;strokeWidth=1;" parent="1" vertex="1">
          <mxGeometry x="1260" width="180" height="120" as="geometry">
            <mxRectangle x="340" y="380" width="170" height="26" as="alternateBounds" />
          </mxGeometry>
        </mxCell>
        <mxCell id="Vf15_LbqZxq-rUc3vXgi-95" value="ID курса (id_course)" style="text;align=left;verticalAlign=top;spacingLeft=4;spacingRight=4;overflow=hidden;rotatable=0;points=[[0,0.5],[1,0.5]];portConstraint=eastwest;" parent="Vf15_LbqZxq-rUc3vXgi-94" vertex="1">
          <mxGeometry y="26" width="180" height="26" as="geometry" />
        </mxCell>
        <mxCell id="Vf15_LbqZxq-rUc3vXgi-96" value="ID года (id_year)" style="text;align=left;verticalAlign=top;spacingLeft=4;spacingRight=4;overflow=hidden;rotatable=0;points=[[0,0.5],[1,0.5]];portConstraint=eastwest;" parent="Vf15_LbqZxq-rUc3vXgi-94" vertex="1">
          <mxGeometry y="52" width="180" height="26" as="geometry" />
        </mxCell>
        <mxCell id="Vf15_LbqZxq-rUc3vXgi-97" value="Дата архивации (archived_at)" style="text;align=left;verticalAlign=top;spacingLeft=4;spacingRight=4;overflow=hidden;rotatable=0;points=[[0,0.5],[1,0.5]];portConstraint=eastwest;" parent="Vf15_LbqZxq-rUc3vXgi-94" vertex="1">
          <mxGeometry y="78" width="180" height="26" as="geometry" />
        </mxCell>
        <mxCell id="Vf15_LbqZxq-rUc3vXgi-98" value="Учебный год (academic_year)" style="swimlane;fontStyle=0;align=center;verticalAlign=top;childLayout=stackLayout;horizontal=1;startSize=26;horizontalStack=0;resizeParent=1;resizeLast=0;collapsible=1;marginBottom=0;rounded=0;shadow=0;strokeWidth=1;" parent="1" vertex="1">
          <mxGeometry x="1030" y="16" width="180" height="104" as="geometry">
            <mxRectangle x="340" y="380" width="170" height="26" as="alternateBounds" />
          </mxGeometry>
        </mxCell>
        <mxCell id="Vf15_LbqZxq-rUc3vXgi-99" value="ID года (id_year)" style="text;align=left;verticalAlign=top;spacingLeft=4;spacingRight=4;overflow=hidden;rotatable=0;points=[[0,0.5],[1,0.5]];portConstraint=eastwest;" parent="Vf15_LbqZxq-rUc3vXgi-98" vertex="1">
          <mxGeometry y="26" width="180" height="26" as="geometry" />
        </mxCell>
        <mxCell id="Vf15_LbqZxq-rUc3vXgi-100" value="Год (year)" style="text;align=left;verticalAlign=top;spacingLeft=4;spacingRight=4;overflow=hidden;rotatable=0;points=[[0,0.5],[1,0.5]];portConstraint=eastwest;" parent="Vf15_LbqZxq-rUc3vXgi-98" vertex="1">
          <mxGeometry y="52" width="180" height="26" as="geometry" />
        </mxCell>
        <mxCell id="Vf15_LbqZxq-rUc3vXgi-101" value="Статус (status)" style="text;align=left;verticalAlign=top;spacingLeft=4;spacingRight=4;overflow=hidden;rotatable=0;points=[[0,0.5],[1,0.5]];portConstraint=eastwest;" parent="Vf15_LbqZxq-rUc3vXgi-98" vertex="1">
          <mxGeometry y="78" width="180" height="26" as="geometry" />
        </mxCell>
        <mxCell id="Vf15_LbqZxq-rUc3vXgi-102" value="Файл (file)" style="swimlane;fontStyle=0;align=center;verticalAlign=top;childLayout=stackLayout;horizontal=1;startSize=26;horizontalStack=0;resizeParent=1;resizeLast=0;collapsible=1;marginBottom=0;rounded=0;shadow=0;strokeWidth=1;" parent="1" vertex="1">
          <mxGeometry x="1020" y="600" width="200" height="260" as="geometry">
            <mxRectangle x="340" y="380" width="170" height="26" as="alternateBounds" />
          </mxGeometry>
        </mxCell>
        <mxCell id="Vf15_LbqZxq-rUc3vXgi-103" value="ID файла (id_file)" style="text;align=left;verticalAlign=top;spacingLeft=4;spacingRight=4;overflow=hidden;rotatable=0;points=[[0,0.5],[1,0.5]];portConstraint=eastwest;" parent="Vf15_LbqZxq-rUc3vXgi-102" vertex="1">
          <mxGeometry y="26" width="200" height="26" as="geometry" />
        </mxCell>
        <mxCell id="Vf15_LbqZxq-rUc3vXgi-104" value="Название (name_file)" style="text;align=left;verticalAlign=top;spacingLeft=4;spacingRight=4;overflow=hidden;rotatable=0;points=[[0,0.5],[1,0.5]];portConstraint=eastwest;" parent="Vf15_LbqZxq-rUc3vXgi-102" vertex="1">
          <mxGeometry y="52" width="200" height="26" as="geometry" />
        </mxCell>
        <mxCell id="Vf15_LbqZxq-rUc3vXgi-105" value="Тип (type_file)" style="text;align=left;verticalAlign=top;spacingLeft=4;spacingRight=4;overflow=hidden;rotatable=0;points=[[0,0.5],[1,0.5]];portConstraint=eastwest;" parent="Vf15_LbqZxq-rUc3vXgi-102" vertex="1">
          <mxGeometry y="78" width="200" height="26" as="geometry" />
        </mxCell>
        <mxCell id="Vf15_LbqZxq-rUc3vXgi-106" value="Ссылка на файл (link_file)" style="text;align=left;verticalAlign=top;spacingLeft=4;spacingRight=4;overflow=hidden;rotatable=0;points=[[0,0.5],[1,0.5]];portConstraint=eastwest;" parent="Vf15_LbqZxq-rUc3vXgi-102" vertex="1">
          <mxGeometry y="104" width="200" height="26" as="geometry" />
        </mxCell>
        <mxCell id="Vf15_LbqZxq-rUc3vXgi-107" value="Дата загрузки (upload_date_file)" style="text;align=left;verticalAlign=top;spacingLeft=4;spacingRight=4;overflow=hidden;rotatable=0;points=[[0,0.5],[1,0.5]];portConstraint=eastwest;" parent="Vf15_LbqZxq-rUc3vXgi-102" vertex="1">
          <mxGeometry y="130" width="200" height="26" as="geometry" />
        </mxCell>
        <mxCell id="Vf15_LbqZxq-rUc3vXgi-108" value="Описание файла (description_file)" style="text;align=left;verticalAlign=top;spacingLeft=4;spacingRight=4;overflow=hidden;rotatable=0;points=[[0,0.5],[1,0.5]];portConstraint=eastwest;" parent="Vf15_LbqZxq-rUc3vXgi-102" vertex="1">
          <mxGeometry y="156" width="200" height="26" as="geometry" />
        </mxCell>
        <mxCell id="Vf15_LbqZxq-rUc3vXgi-109" value="ID пользователя (id_user)" style="text;align=left;verticalAlign=top;spacingLeft=4;spacingRight=4;overflow=hidden;rotatable=0;points=[[0,0.5],[1,0.5]];portConstraint=eastwest;" parent="Vf15_LbqZxq-rUc3vXgi-102" vertex="1">
          <mxGeometry y="182" width="200" height="26" as="geometry" />
        </mxCell>
        <mxCell id="Vf15_LbqZxq-rUc3vXgi-110" value="ID курса (id_course)" style="text;align=left;verticalAlign=top;spacingLeft=4;spacingRight=4;overflow=hidden;rotatable=0;points=[[0,0.5],[1,0.5]];portConstraint=eastwest;" parent="Vf15_LbqZxq-rUc3vXgi-102" vertex="1">
          <mxGeometry y="208" width="200" height="26" as="geometry" />
        </mxCell>
        <mxCell id="Vf15_LbqZxq-rUc3vXgi-111" value="Размер" style="text;align=left;verticalAlign=top;spacingLeft=4;spacingRight=4;overflow=hidden;rotatable=0;points=[[0,0.5],[1,0.5]];portConstraint=eastwest;" parent="Vf15_LbqZxq-rUc3vXgi-102" vertex="1">
          <mxGeometry y="234" width="200" height="26" as="geometry" />
        </mxCell>
        <mxCell id="Vf15_LbqZxq-rUc3vXgi-112" value="Тест (test)" style="swimlane;fontStyle=0;align=center;verticalAlign=top;childLayout=stackLayout;horizontal=1;startSize=26;horizontalStack=0;resizeParent=1;resizeLast=0;collapsible=1;marginBottom=0;rounded=0;shadow=0;strokeWidth=1;" parent="1" vertex="1">
          <mxGeometry x="1510" y="440" width="210" height="208" as="geometry">
            <mxRectangle x="340" y="380" width="170" height="26" as="alternateBounds" />
          </mxGeometry>
        </mxCell>
        <mxCell id="Vf15_LbqZxq-rUc3vXgi-113" value="ID теста (id_test)" style="text;align=left;verticalAlign=top;spacingLeft=4;spacingRight=4;overflow=hidden;rotatable=0;points=[[0,0.5],[1,0.5]];portConstraint=eastwest;" parent="Vf15_LbqZxq-rUc3vXgi-112" vertex="1">
          <mxGeometry y="26" width="210" height="26" as="geometry" />
        </mxCell>
        <mxCell id="Vf15_LbqZxq-rUc3vXgi-114" value="Название (description_test)" style="text;align=left;verticalAlign=top;spacingLeft=4;spacingRight=4;overflow=hidden;rotatable=0;points=[[0,0.5],[1,0.5]];portConstraint=eastwest;" parent="Vf15_LbqZxq-rUc3vXgi-112" vertex="1">
          <mxGeometry y="52" width="210" height="26" as="geometry" />
        </mxCell>
        <mxCell id="Vf15_LbqZxq-rUc3vXgi-115" value="Макс. балл (maximum_score)" style="text;align=left;verticalAlign=top;spacingLeft=4;spacingRight=4;overflow=hidden;rotatable=0;points=[[0,0.5],[1,0.5]];portConstraint=eastwest;" parent="Vf15_LbqZxq-rUc3vXgi-112" vertex="1">
          <mxGeometry y="78" width="210" height="26" as="geometry" />
        </mxCell>
        <mxCell id="Vf15_LbqZxq-rUc3vXgi-116" value="ID курса (id_course)" style="text;align=left;verticalAlign=top;spacingLeft=4;spacingRight=4;overflow=hidden;rotatable=0;points=[[0,0.5],[1,0.5]];portConstraint=eastwest;" parent="Vf15_LbqZxq-rUc3vXgi-112" vertex="1">
          <mxGeometry y="104" width="210" height="26" as="geometry" />
        </mxCell>
        <mxCell id="Vf15_LbqZxq-rUc3vXgi-117" value="ID модуля (id_module)" style="text;align=left;verticalAlign=top;spacingLeft=4;spacingRight=4;overflow=hidden;rotatable=0;points=[[0,0.5],[1,0.5]];portConstraint=eastwest;" parent="Vf15_LbqZxq-rUc3vXgi-112" vertex="1">
          <mxGeometry y="130" width="210" height="26" as="geometry" />
        </mxCell>
        <mxCell id="Vf15_LbqZxq-rUc3vXgi-118" value="Лимит времени (time_limit)" style="text;align=left;verticalAlign=top;spacingLeft=4;spacingRight=4;overflow=hidden;rotatable=0;points=[[0,0.5],[1,0.5]];portConstraint=eastwest;" parent="Vf15_LbqZxq-rUc3vXgi-112" vertex="1">
          <mxGeometry y="156" width="210" height="26" as="geometry" />
        </mxCell>
        <mxCell id="Vf15_LbqZxq-rUc3vXgi-119" value="Кол-во попыток (attempts_allowed)" style="text;align=left;verticalAlign=top;spacingLeft=4;spacingRight=4;overflow=hidden;rotatable=0;points=[[0,0.5],[1,0.5]];portConstraint=eastwest;" parent="Vf15_LbqZxq-rUc3vXgi-112" vertex="1">
          <mxGeometry y="182" width="210" height="26" as="geometry" />
        </mxCell>
        <mxCell id="Vf15_LbqZxq-rUc3vXgi-120" value="Варианты ответа (test_option)" style="swimlane;fontStyle=0;align=center;verticalAlign=top;childLayout=stackLayout;horizontal=1;startSize=26;horizontalStack=0;resizeParent=1;resizeLast=0;collapsible=1;marginBottom=0;rounded=0;shadow=0;strokeWidth=1;" parent="1" vertex="1">
          <mxGeometry x="1790" y="440" width="270" height="190" as="geometry">
            <mxRectangle x="340" y="380" width="170" height="26" as="alternateBounds" />
          </mxGeometry>
        </mxCell>
        <mxCell id="Vf15_LbqZxq-rUc3vXgi-121" value="ID варианта ответа (id_option)" style="text;align=left;verticalAlign=top;spacingLeft=4;spacingRight=4;overflow=hidden;rotatable=0;points=[[0,0.5],[1,0.5]];portConstraint=eastwest;" parent="Vf15_LbqZxq-rUc3vXgi-120" vertex="1">
          <mxGeometry y="26" width="270" height="26" as="geometry" />
        </mxCell>
        <mxCell id="Vf15_LbqZxq-rUc3vXgi-122" value="ID вопроса (id_question)" style="text;align=left;verticalAlign=top;spacingLeft=4;spacingRight=4;overflow=hidden;rotatable=0;points=[[0,0.5],[1,0.5]];portConstraint=eastwest;" parent="Vf15_LbqZxq-rUc3vXgi-120" vertex="1">
          <mxGeometry y="52" width="270" height="26" as="geometry" />
        </mxCell>
        <mxCell id="Vf15_LbqZxq-rUc3vXgi-123" value="Ответ (selection_option)" style="text;align=left;verticalAlign=top;spacingLeft=4;spacingRight=4;overflow=hidden;rotatable=0;points=[[0,0.5],[1,0.5]];portConstraint=eastwest;" parent="Vf15_LbqZxq-rUc3vXgi-120" vertex="1">
          <mxGeometry y="78" width="270" height="26" as="geometry" />
        </mxCell>
        <mxCell id="Vf15_LbqZxq-rUc3vXgi-124" value="Баллы за ответ (score_answer)" style="text;align=left;verticalAlign=top;spacingLeft=4;spacingRight=4;overflow=hidden;rotatable=0;points=[[0,0.5],[1,0.5]];portConstraint=eastwest;" parent="Vf15_LbqZxq-rUc3vXgi-120" vertex="1">
          <mxGeometry y="104" width="270" height="26" as="geometry" />
        </mxCell>
        <mxCell id="Vf15_LbqZxq-rUc3vXgi-125" value="Порядок вопроса (sequence_number_option)" style="text;align=left;verticalAlign=top;spacingLeft=4;spacingRight=4;overflow=hidden;rotatable=0;points=[[0,0.5],[1,0.5]];portConstraint=eastwest;" parent="Vf15_LbqZxq-rUc3vXgi-120" vertex="1">
          <mxGeometry y="130" width="270" height="26" as="geometry" />
        </mxCell>
        <mxCell id="Vf15_LbqZxq-rUc3vXgi-126" value="Верный/неверный ответ (is_correct)" style="text;align=left;verticalAlign=top;spacingLeft=4;spacingRight=4;overflow=hidden;rotatable=0;points=[[0,0.5],[1,0.5]];portConstraint=eastwest;" parent="Vf15_LbqZxq-rUc3vXgi-120" vertex="1">
          <mxGeometry y="156" width="270" height="26" as="geometry" />
        </mxCell>
        <mxCell id="Vf15_LbqZxq-rUc3vXgi-127" value="Вопросы теста (test_question)" style="swimlane;fontStyle=0;align=center;verticalAlign=top;childLayout=stackLayout;horizontal=1;startSize=26;horizontalStack=0;resizeParent=1;resizeLast=0;collapsible=1;marginBottom=0;rounded=0;shadow=0;strokeWidth=1;" parent="1" vertex="1">
          <mxGeometry x="1790" y="720" width="280" height="182" as="geometry">
            <mxRectangle x="340" y="380" width="170" height="26" as="alternateBounds" />
          </mxGeometry>
        </mxCell>
        <mxCell id="Vf15_LbqZxq-rUc3vXgi-128" value="ID вопроса (id_question)" style="text;align=left;verticalAlign=top;spacingLeft=4;spacingRight=4;overflow=hidden;rotatable=0;points=[[0,0.5],[1,0.5]];portConstraint=eastwest;" parent="Vf15_LbqZxq-rUc3vXgi-127" vertex="1">
          <mxGeometry y="26" width="280" height="26" as="geometry" />
        </mxCell>
        <mxCell id="Vf15_LbqZxq-rUc3vXgi-129" value="ID теста (id_test)" style="text;align=left;verticalAlign=top;spacingLeft=4;spacingRight=4;overflow=hidden;rotatable=0;points=[[0,0.5],[1,0.5]];portConstraint=eastwest;" parent="Vf15_LbqZxq-rUc3vXgi-127" vertex="1">
          <mxGeometry y="52" width="280" height="26" as="geometry" />
        </mxCell>
        <mxCell id="Vf15_LbqZxq-rUc3vXgi-130" value="Вопрос (question_text)" style="text;align=left;verticalAlign=top;spacingLeft=4;spacingRight=4;overflow=hidden;rotatable=0;points=[[0,0.5],[1,0.5]];portConstraint=eastwest;" parent="Vf15_LbqZxq-rUc3vXgi-127" vertex="1">
          <mxGeometry y="78" width="280" height="26" as="geometry" />
        </mxCell>
        <mxCell id="Vf15_LbqZxq-rUc3vXgi-131" value="Порядок вопроса (sequence_number_question)" style="text;align=left;verticalAlign=top;spacingLeft=4;spacingRight=4;overflow=hidden;rotatable=0;points=[[0,0.5],[1,0.5]];portConstraint=eastwest;" parent="Vf15_LbqZxq-rUc3vXgi-127" vertex="1">
          <mxGeometry y="104" width="280" height="26" as="geometry" />
        </mxCell>
        <mxCell id="Vf15_LbqZxq-rUc3vXgi-132" value="Текстовый ответ да/нет (is_text_answer)" style="text;align=left;verticalAlign=top;spacingLeft=4;spacingRight=4;overflow=hidden;rotatable=0;points=[[0,0.5],[1,0.5]];portConstraint=eastwest;" parent="Vf15_LbqZxq-rUc3vXgi-127" vertex="1">
          <mxGeometry y="130" width="280" height="26" as="geometry" />
        </mxCell>
        <mxCell id="Vf15_LbqZxq-rUc3vXgi-133" value="Кол-во баллов вопроса (question_score)" style="text;align=left;verticalAlign=top;spacingLeft=4;spacingRight=4;overflow=hidden;rotatable=0;points=[[0,0.5],[1,0.5]];portConstraint=eastwest;" parent="Vf15_LbqZxq-rUc3vXgi-127" vertex="1">
          <mxGeometry y="156" width="280" height="26" as="geometry" />
        </mxCell>
        <mxCell id="Vf15_LbqZxq-rUc3vXgi-134" value="Результаты теста (test_result)" style="swimlane;fontStyle=0;align=center;verticalAlign=top;childLayout=stackLayout;horizontal=1;startSize=26;horizontalStack=0;resizeParent=1;resizeLast=0;collapsible=1;marginBottom=0;rounded=0;shadow=0;strokeWidth=1;" parent="1" vertex="1">
          <mxGeometry x="1500" y="680" width="210" height="350" as="geometry">
            <mxRectangle x="340" y="380" width="170" height="26" as="alternateBounds" />
          </mxGeometry>
        </mxCell>
        <mxCell id="4tzGwSmh90k9xzZRoyF0-1" value="ID результата (id_result)" style="text;align=left;verticalAlign=top;spacingLeft=4;spacingRight=4;overflow=hidden;rotatable=0;points=[[0,0.5],[1,0.5]];portConstraint=eastwest;" parent="Vf15_LbqZxq-rUc3vXgi-134" vertex="1">
          <mxGeometry y="26" width="210" height="26" as="geometry" />
        </mxCell>
        <mxCell id="Vf15_LbqZxq-rUc3vXgi-135" value="ID теста (id_test)" style="text;align=left;verticalAlign=top;spacingLeft=4;spacingRight=4;overflow=hidden;rotatable=0;points=[[0,0.5],[1,0.5]];portConstraint=eastwest;" parent="Vf15_LbqZxq-rUc3vXgi-134" vertex="1">
          <mxGeometry y="52" width="210" height="26" as="geometry" />
        </mxCell>
        <mxCell id="4tzGwSmh90k9xzZRoyF0-2" value="ID курса (id_course)" style="text;align=left;verticalAlign=top;spacingLeft=4;spacingRight=4;overflow=hidden;rotatable=0;points=[[0,0.5],[1,0.5]];portConstraint=eastwest;" parent="Vf15_LbqZxq-rUc3vXgi-134" vertex="1">
          <mxGeometry y="78" width="210" height="26" as="geometry" />
        </mxCell>
        <mxCell id="Vf15_LbqZxq-rUc3vXgi-136" value="ID студента (id_student)" style="text;align=left;verticalAlign=top;spacingLeft=4;spacingRight=4;overflow=hidden;rotatable=0;points=[[0,0.5],[1,0.5]];portConstraint=eastwest;" parent="Vf15_LbqZxq-rUc3vXgi-134" vertex="1">
          <mxGeometry y="104" width="210" height="26" as="geometry" />
        </mxCell>
        <mxCell id="Vf15_LbqZxq-rUc3vXgi-137" value="Полученный балл (score)" style="text;align=left;verticalAlign=top;spacingLeft=4;spacingRight=4;overflow=hidden;rotatable=0;points=[[0,0.5],[1,0.5]];portConstraint=eastwest;" parent="Vf15_LbqZxq-rUc3vXgi-134" vertex="1">
          <mxGeometry y="130" width="210" height="26" as="geometry" />
        </mxCell>
        <mxCell id="Vf15_LbqZxq-rUc3vXgi-138" value="Макс. балл (max_score)" style="text;align=left;verticalAlign=top;spacingLeft=4;spacingRight=4;overflow=hidden;rotatable=0;points=[[0,0.5],[1,0.5]];portConstraint=eastwest;" parent="Vf15_LbqZxq-rUc3vXgi-134" vertex="1">
          <mxGeometry y="156" width="210" height="26" as="geometry" />
        </mxCell>
        <mxCell id="Vf15_LbqZxq-rUc3vXgi-139" value="Проценты (percentage)" style="text;align=left;verticalAlign=top;spacingLeft=4;spacingRight=4;overflow=hidden;rotatable=0;points=[[0,0.5],[1,0.5]];portConstraint=eastwest;" parent="Vf15_LbqZxq-rUc3vXgi-134" vertex="1">
          <mxGeometry y="182" width="210" height="26" as="geometry" />
        </mxCell>
        <mxCell id="Vf15_LbqZxq-rUc3vXgi-140" value="Время начала попытки (started_at)" style="text;align=left;verticalAlign=top;spacingLeft=4;spacingRight=4;overflow=hidden;rotatable=0;points=[[0,0.5],[1,0.5]];portConstraint=eastwest;" parent="Vf15_LbqZxq-rUc3vXgi-134" vertex="1">
          <mxGeometry y="208" width="210" height="26" as="geometry" />
        </mxCell>
        <mxCell id="Vf15_LbqZxq-rUc3vXgi-141" value="Время конца попытки (finished_at)" style="text;align=left;verticalAlign=top;spacingLeft=4;spacingRight=4;overflow=hidden;rotatable=0;points=[[0,0.5],[1,0.5]];portConstraint=eastwest;" parent="Vf15_LbqZxq-rUc3vXgi-134" vertex="1">
          <mxGeometry y="234" width="210" height="26" as="geometry" />
        </mxCell>
        <mxCell id="Vf15_LbqZxq-rUc3vXgi-142" value="Потраченное время (time_spent)" style="text;align=left;verticalAlign=top;spacingLeft=4;spacingRight=4;overflow=hidden;rotatable=0;points=[[0,0.5],[1,0.5]];portConstraint=eastwest;" parent="Vf15_LbqZxq-rUc3vXgi-134" vertex="1">
          <mxGeometry y="260" width="210" height="26" as="geometry" />
        </mxCell>
        <mxCell id="Vf15_LbqZxq-rUc3vXgi-143" value="Кол-во попыток (attempt_number)" style="text;align=left;verticalAlign=top;spacingLeft=4;spacingRight=4;overflow=hidden;rotatable=0;points=[[0,0.5],[1,0.5]];portConstraint=eastwest;" parent="Vf15_LbqZxq-rUc3vXgi-134" vertex="1">
          <mxGeometry y="286" width="210" height="26" as="geometry" />
        </mxCell>
        <mxCell id="Vf15_LbqZxq-rUc3vXgi-144" value="Статус попытки (status)" style="text;align=left;verticalAlign=top;spacingLeft=4;spacingRight=4;overflow=hidden;rotatable=0;points=[[0,0.5],[1,0.5]];portConstraint=eastwest;" parent="Vf15_LbqZxq-rUc3vXgi-134" vertex="1">
          <mxGeometry y="312" width="210" height="26" as="geometry" />
        </mxCell>
        <mxCell id="Vf15_LbqZxq-rUc3vXgi-156" value="Задание (task)" style="swimlane;fontStyle=0;align=center;verticalAlign=top;childLayout=stackLayout;horizontal=1;startSize=26;horizontalStack=0;resizeParent=1;resizeLast=0;collapsible=1;marginBottom=0;rounded=0;shadow=0;strokeWidth=1;" parent="1" vertex="1">
          <mxGeometry x="1270" y="480" width="180" height="286" as="geometry">
            <mxRectangle x="340" y="380" width="170" height="26" as="alternateBounds" />
          </mxGeometry>
        </mxCell>
        <mxCell id="Vf15_LbqZxq-rUc3vXgi-157" value="ID задания (id_task)" style="text;align=left;verticalAlign=top;spacingLeft=4;spacingRight=4;overflow=hidden;rotatable=0;points=[[0,0.5],[1,0.5]];portConstraint=eastwest;" parent="Vf15_LbqZxq-rUc3vXgi-156" vertex="1">
          <mxGeometry y="26" width="180" height="26" as="geometry" />
        </mxCell>
        <mxCell id="Vf15_LbqZxq-rUc3vXgi-158" value="ID курса (id_course)" style="text;align=left;verticalAlign=top;spacingLeft=4;spacingRight=4;overflow=hidden;rotatable=0;points=[[0,0.5],[1,0.5]];portConstraint=eastwest;" parent="Vf15_LbqZxq-rUc3vXgi-156" vertex="1">
          <mxGeometry y="52" width="180" height="26" as="geometry" />
        </mxCell>
        <mxCell id="Vf15_LbqZxq-rUc3vXgi-159" value="ID модуля (id_module)" style="text;align=left;verticalAlign=top;spacingLeft=4;spacingRight=4;overflow=hidden;rotatable=0;points=[[0,0.5],[1,0.5]];portConstraint=eastwest;" parent="Vf15_LbqZxq-rUc3vXgi-156" vertex="1">
          <mxGeometry y="78" width="180" height="26" as="geometry" />
        </mxCell>
        <mxCell id="Vf15_LbqZxq-rUc3vXgi-160" value="Название (name_task)" style="text;align=left;verticalAlign=top;spacingLeft=4;spacingRight=4;overflow=hidden;rotatable=0;points=[[0,0.5],[1,0.5]];portConstraint=eastwest;" parent="Vf15_LbqZxq-rUc3vXgi-156" vertex="1">
          <mxGeometry y="104" width="180" height="26" as="geometry" />
        </mxCell>
        <mxCell id="Vf15_LbqZxq-rUc3vXgi-161" value="Описание (description_task)" style="text;align=left;verticalAlign=top;spacingLeft=4;spacingRight=4;overflow=hidden;rotatable=0;points=[[0,0.5],[1,0.5]];portConstraint=eastwest;" parent="Vf15_LbqZxq-rUc3vXgi-156" vertex="1">
          <mxGeometry y="130" width="180" height="26" as="geometry" />
        </mxCell>
        <mxCell id="Vf15_LbqZxq-rUc3vXgi-162" value="Задание (task_text)" style="text;align=left;verticalAlign=top;spacingLeft=4;spacingRight=4;overflow=hidden;rotatable=0;points=[[0,0.5],[1,0.5]];portConstraint=eastwest;" parent="Vf15_LbqZxq-rUc3vXgi-156" vertex="1">
          <mxGeometry y="156" width="180" height="26" as="geometry" />
        </mxCell>
        <mxCell id="Vf15_LbqZxq-rUc3vXgi-163" value="Дедлайн (deadline)" style="text;align=left;verticalAlign=top;spacingLeft=4;spacingRight=4;overflow=hidden;rotatable=0;points=[[0,0.5],[1,0.5]];portConstraint=eastwest;" parent="Vf15_LbqZxq-rUc3vXgi-156" vertex="1">
          <mxGeometry y="182" width="180" height="26" as="geometry" />
        </mxCell>
        <mxCell id="Vf15_LbqZxq-rUc3vXgi-164" value="Макс. балл (maximum_score)" style="text;align=left;verticalAlign=top;spacingLeft=4;spacingRight=4;overflow=hidden;rotatable=0;points=[[0,0.5],[1,0.5]];portConstraint=eastwest;" parent="Vf15_LbqZxq-rUc3vXgi-156" vertex="1">
          <mxGeometry y="208" width="180" height="26" as="geometry" />
        </mxCell>
        <mxCell id="Vf15_LbqZxq-rUc3vXgi-165" value="ID файла (id_file)" style="text;align=left;verticalAlign=top;spacingLeft=4;spacingRight=4;overflow=hidden;rotatable=0;points=[[0,0.5],[1,0.5]];portConstraint=eastwest;" parent="Vf15_LbqZxq-rUc3vXgi-156" vertex="1">
          <mxGeometry y="234" width="180" height="26" as="geometry" />
        </mxCell>
        <mxCell id="Vf15_LbqZxq-rUc3vXgi-166" value="Дата отправления (created_at)" style="text;align=left;verticalAlign=top;spacingLeft=4;spacingRight=4;overflow=hidden;rotatable=0;points=[[0,0.5],[1,0.5]];portConstraint=eastwest;" parent="Vf15_LbqZxq-rUc3vXgi-156" vertex="1">
          <mxGeometry y="260" width="180" height="26" as="geometry" />
        </mxCell>
        <mxCell id="Vf15_LbqZxq-rUc3vXgi-167" value="Оценка задания (task_grade)" style="swimlane;fontStyle=0;align=center;verticalAlign=top;childLayout=stackLayout;horizontal=1;startSize=26;horizontalStack=0;resizeParent=1;resizeLast=0;collapsible=1;marginBottom=0;rounded=0;shadow=0;strokeWidth=1;" parent="1" vertex="1">
          <mxGeometry x="1260" y="800" width="180" height="208" as="geometry">
            <mxRectangle x="340" y="380" width="170" height="26" as="alternateBounds" />
          </mxGeometry>
        </mxCell>
        <mxCell id="Vf15_LbqZxq-rUc3vXgi-168" value="ID задания (id_task)" style="text;align=left;verticalAlign=top;spacingLeft=4;spacingRight=4;overflow=hidden;rotatable=0;points=[[0,0.5],[1,0.5]];portConstraint=eastwest;" parent="Vf15_LbqZxq-rUc3vXgi-167" vertex="1">
          <mxGeometry y="26" width="180" height="26" as="geometry" />
        </mxCell>
        <mxCell id="Vf15_LbqZxq-rUc3vXgi-169" value="ID студента (id_student)" style="text;align=left;verticalAlign=top;spacingLeft=4;spacingRight=4;overflow=hidden;rotatable=0;points=[[0,0.5],[1,0.5]];portConstraint=eastwest;" parent="Vf15_LbqZxq-rUc3vXgi-167" vertex="1">
          <mxGeometry y="52" width="180" height="26" as="geometry" />
        </mxCell>
        <mxCell id="Vf15_LbqZxq-rUc3vXgi-170" value="Оценка (score_task)" style="text;align=left;verticalAlign=top;spacingLeft=4;spacingRight=4;overflow=hidden;rotatable=0;points=[[0,0.5],[1,0.5]];portConstraint=eastwest;" parent="Vf15_LbqZxq-rUc3vXgi-167" vertex="1">
          <mxGeometry y="78" width="180" height="26" as="geometry" />
        </mxCell>
        <mxCell id="Vf15_LbqZxq-rUc3vXgi-171" value="Зачет (is_passed)" style="text;align=left;verticalAlign=top;spacingLeft=4;spacingRight=4;overflow=hidden;rotatable=0;points=[[0,0.5],[1,0.5]];portConstraint=eastwest;" parent="Vf15_LbqZxq-rUc3vXgi-167" vertex="1">
          <mxGeometry y="104" width="180" height="26" as="geometry" />
        </mxCell>
        <mxCell id="Vf15_LbqZxq-rUc3vXgi-172" value="Дата сдачи (submitted_at)" style="text;align=left;verticalAlign=top;spacingLeft=4;spacingRight=4;overflow=hidden;rotatable=0;points=[[0,0.5],[1,0.5]];portConstraint=eastwest;" parent="Vf15_LbqZxq-rUc3vXgi-167" vertex="1">
          <mxGeometry y="130" width="180" height="26" as="geometry" />
        </mxCell>
        <mxCell id="Vf15_LbqZxq-rUc3vXgi-173" value="Дата оценки (graded_at)" style="text;align=left;verticalAlign=top;spacingLeft=4;spacingRight=4;overflow=hidden;rotatable=0;points=[[0,0.5],[1,0.5]];portConstraint=eastwest;" parent="Vf15_LbqZxq-rUc3vXgi-167" vertex="1">
          <mxGeometry y="156" width="180" height="26" as="geometry" />
        </mxCell>
        <mxCell id="Vf15_LbqZxq-rUc3vXgi-174" value="Заметка (feedback)" style="text;align=left;verticalAlign=top;spacingLeft=4;spacingRight=4;overflow=hidden;rotatable=0;points=[[0,0.5],[1,0.5]];portConstraint=eastwest;" parent="Vf15_LbqZxq-rUc3vXgi-167" vertex="1">
          <mxGeometry y="182" width="180" height="26" as="geometry" />
        </mxCell>
        <mxCell id="Vf15_LbqZxq-rUc3vXgi-175" value="" style="endArrow=ERone;shadow=0;strokeWidth=1;rounded=0;endFill=0;startArrow=ERmany;startFill=0;edgeStyle=orthogonalEdgeStyle;exitX=0;exitY=0.5;exitDx=0;exitDy=0;entryX=0;entryY=0.5;entryDx=0;entryDy=0;" parent="1" source="Vf15_LbqZxq-rUc3vXgi-46" target="Vf15_LbqZxq-rUc3vXgi-42" edge="1">
          <mxGeometry x="0.5" y="41" relative="1" as="geometry">
            <mxPoint x="960" y="739.92" as="sourcePoint" />
            <mxPoint x="787" y="142.92000000000002" as="targetPoint" />
            <mxPoint x="-40" y="32" as="offset" />
            <Array as="points">
              <mxPoint x="760" y="65" />
              <mxPoint x="760" y="239" />
            </Array>
          </mxGeometry>
        </mxCell>
        <mxCell id="Vf15_LbqZxq-rUc3vXgi-176" value="" style="endArrow=ERone;shadow=0;strokeWidth=1;rounded=0;endFill=0;startArrow=ERmany;startFill=0;edgeStyle=orthogonalEdgeStyle;exitX=0;exitY=0.5;exitDx=0;exitDy=0;entryX=0;entryY=0.5;entryDx=0;entryDy=0;" parent="1" source="Vf15_LbqZxq-rUc3vXgi-56" target="Vf15_LbqZxq-rUc3vXgi-42" edge="1">
          <mxGeometry x="0.5" y="41" relative="1" as="geometry">
            <mxPoint x="1010" y="727" as="sourcePoint" />
            <mxPoint x="837" y="130" as="targetPoint" />
            <mxPoint x="-40" y="32" as="offset" />
            <Array as="points">
              <mxPoint x="780" y="543" />
              <mxPoint x="780" y="239" />
            </Array>
          </mxGeometry>
        </mxCell>
        <mxCell id="Vf15_LbqZxq-rUc3vXgi-177" value="" style="endArrow=ERone;shadow=0;strokeWidth=1;rounded=0;endFill=0;startArrow=ERmany;startFill=0;edgeStyle=orthogonalEdgeStyle;exitX=1;exitY=0.5;exitDx=0;exitDy=0;entryX=0;entryY=0.5;entryDx=0;entryDy=0;" parent="1" source="Vf15_LbqZxq-rUc3vXgi-17" edge="1">
          <mxGeometry x="0.5" y="41" relative="1" as="geometry">
            <mxPoint x="800" y="544" as="sourcePoint" />
            <mxPoint x="800" y="240" as="targetPoint" />
            <mxPoint x="-40" y="32" as="offset" />
            <Array as="points">
              <mxPoint x="750" y="317" />
              <mxPoint x="750" y="240" />
            </Array>
          </mxGeometry>
        </mxCell>
        <mxCell id="Vf15_LbqZxq-rUc3vXgi-178" value="" style="endArrow=ERone;shadow=0;strokeWidth=1;rounded=0;endFill=0;startArrow=ERmany;startFill=0;edgeStyle=orthogonalEdgeStyle;exitX=1;exitY=0.5;exitDx=0;exitDy=0;entryX=0;entryY=0.5;entryDx=0;entryDy=0;" parent="1" source="Vf15_LbqZxq-rUc3vXgi-21" target="Vf15_LbqZxq-rUc3vXgi-52" edge="1">
          <mxGeometry x="0.5" y="41" relative="1" as="geometry">
            <mxPoint x="740" y="730" as="sourcePoint" />
            <mxPoint x="740" y="426" as="targetPoint" />
            <mxPoint x="-40" y="32" as="offset" />
            <Array as="points">
              <mxPoint x="770" y="491" />
              <mxPoint x="770" y="439" />
            </Array>
          </mxGeometry>
        </mxCell>
        <mxCell id="Vf15_LbqZxq-rUc3vXgi-179" value="" style="endArrow=ERone;shadow=0;strokeWidth=1;rounded=0;endFill=0;startArrow=ERmany;startFill=0;edgeStyle=orthogonalEdgeStyle;exitX=0;exitY=0.5;exitDx=0;exitDy=0;entryX=1;entryY=0.5;entryDx=0;entryDy=0;" parent="1" source="Vf15_LbqZxq-rUc3vXgi-63" target="Vf15_LbqZxq-rUc3vXgi-52" edge="1">
          <mxGeometry x="0.5" y="41" relative="1" as="geometry">
            <mxPoint x="1010" y="551.96" as="sourcePoint" />
            <mxPoint x="1010" y="247.96" as="targetPoint" />
            <mxPoint x="-40" y="32" as="offset" />
            <Array as="points">
              <mxPoint x="1000" y="369" />
              <mxPoint x="1000" y="439" />
            </Array>
          </mxGeometry>
        </mxCell>
        <mxCell id="Vf15_LbqZxq-rUc3vXgi-180" value="" style="endArrow=ERmany;shadow=0;strokeWidth=1;rounded=0;endFill=0;startArrow=ERone;startFill=0;edgeStyle=orthogonalEdgeStyle;exitX=1;exitY=0.5;exitDx=0;exitDy=0;entryX=0;entryY=0.5;entryDx=0;entryDy=0;" parent="1" source="Vf15_LbqZxq-rUc3vXgi-14" target="Vf15_LbqZxq-rUc3vXgi-62" edge="1">
          <mxGeometry x="0.5" y="41" relative="1" as="geometry">
            <mxPoint x="820" y="563" as="sourcePoint" />
            <mxPoint x="820" y="259" as="targetPoint" />
            <mxPoint x="-40" y="32" as="offset" />
            <Array as="points">
              <mxPoint x="740" y="239" />
              <mxPoint x="740" y="160" />
              <mxPoint x="1260" y="160" />
              <mxPoint x="1260" y="343" />
            </Array>
          </mxGeometry>
        </mxCell>
        <mxCell id="Vf15_LbqZxq-rUc3vXgi-181" value="" style="endArrow=ERmany;shadow=0;strokeWidth=1;rounded=0;endFill=0;startArrow=ERone;startFill=0;entryX=0;entryY=0.5;entryDx=0;entryDy=0;edgeStyle=orthogonalEdgeStyle;exitX=0;exitY=0.5;exitDx=0;exitDy=0;" parent="1" source="Vf15_LbqZxq-rUc3vXgi-14" target="Vf15_LbqZxq-rUc3vXgi-49" edge="1">
          <mxGeometry x="0.5" y="41" relative="1" as="geometry">
            <mxPoint x="530" y="210" as="sourcePoint" />
            <mxPoint x="550" y="80" as="targetPoint" />
            <mxPoint x="-40" y="32" as="offset" />
            <Array as="points">
              <mxPoint x="480" y="239" />
              <mxPoint x="480" y="79" />
            </Array>
          </mxGeometry>
        </mxCell>
        <mxCell id="Vf15_LbqZxq-rUc3vXgi-182" value="" style="endArrow=ERone;shadow=0;strokeWidth=1;rounded=0;endFill=0;startArrow=ERmany;startFill=0;edgeStyle=orthogonalEdgeStyle;exitX=1;exitY=0.5;exitDx=0;exitDy=0;entryX=0;entryY=0.5;entryDx=0;entryDy=0;" parent="1" source="Vf15_LbqZxq-rUc3vXgi-50" target="Vf15_LbqZxq-rUc3vXgi-45" edge="1">
          <mxGeometry x="0.5" y="41" relative="1" as="geometry">
            <mxPoint x="760" y="-158.14" as="sourcePoint" />
            <mxPoint x="760" y="15.86" as="targetPoint" />
            <mxPoint x="-40" y="32" as="offset" />
            <Array as="points">
              <mxPoint x="740" y="105" />
              <mxPoint x="740" y="39" />
            </Array>
          </mxGeometry>
        </mxCell>
        <mxCell id="Vf15_LbqZxq-rUc3vXgi-183" value="" style="endArrow=ERone;shadow=0;strokeWidth=1;rounded=0;endFill=0;startArrow=ERmany;startFill=0;edgeStyle=orthogonalEdgeStyle;exitX=0;exitY=0.5;exitDx=0;exitDy=0;entryX=1;entryY=0.5;entryDx=0;entryDy=0;" parent="1" source="Vf15_LbqZxq-rUc3vXgi-82" target="Vf15_LbqZxq-rUc3vXgi-58" edge="1">
          <mxGeometry x="0.5" y="41" relative="1" as="geometry">
            <mxPoint x="1500" y="164.95" as="sourcePoint" />
            <mxPoint x="1500" y="338.95" as="targetPoint" />
            <mxPoint x="-40" y="32" as="offset" />
            <Array as="points">
              <mxPoint x="1500" y="129" />
              <mxPoint x="1500" y="239" />
            </Array>
          </mxGeometry>
        </mxCell>
        <mxCell id="Vf15_LbqZxq-rUc3vXgi-184" value="" style="endArrow=ERone;shadow=0;strokeWidth=1;rounded=0;endFill=0;startArrow=ERmany;startFill=0;edgeStyle=orthogonalEdgeStyle;exitX=0;exitY=0.5;exitDx=0;exitDy=0;entryX=1;entryY=0.5;entryDx=0;entryDy=0;" parent="1" source="Vf15_LbqZxq-rUc3vXgi-86" target="Vf15_LbqZxq-rUc3vXgi-58" edge="1">
          <mxGeometry x="0.5" y="41" relative="1" as="geometry">
            <mxPoint x="1510" y="240" as="sourcePoint" />
            <mxPoint x="1430" y="376" as="targetPoint" />
            <mxPoint x="-40" y="32" as="offset" />
            <Array as="points">
              <mxPoint x="1520" y="265" />
              <mxPoint x="1520" y="239" />
            </Array>
          </mxGeometry>
        </mxCell>
        <mxCell id="Vf15_LbqZxq-rUc3vXgi-185" value="" style="endArrow=ERone;shadow=0;strokeWidth=1;rounded=0;endFill=0;startArrow=ERmany;startFill=0;edgeStyle=orthogonalEdgeStyle;exitX=0;exitY=0.5;exitDx=0;exitDy=0;entryX=1;entryY=0.5;entryDx=0;entryDy=0;" parent="1" source="Vf15_LbqZxq-rUc3vXgi-116" target="Vf15_LbqZxq-rUc3vXgi-58" edge="1">
          <mxGeometry x="0.5" y="41" relative="1" as="geometry">
            <mxPoint x="1520" y="320" as="sourcePoint" />
            <mxPoint x="1440" y="456" as="targetPoint" />
            <mxPoint x="-40" y="32" as="offset" />
            <Array as="points">
              <mxPoint x="1490" y="557" />
              <mxPoint x="1490" y="239" />
            </Array>
          </mxGeometry>
        </mxCell>
        <mxCell id="Vf15_LbqZxq-rUc3vXgi-186" value="" style="endArrow=ERone;shadow=0;strokeWidth=1;rounded=0;endFill=0;startArrow=ERmany;startFill=0;edgeStyle=orthogonalEdgeStyle;exitX=0;exitY=0.5;exitDx=0;exitDy=0;entryX=0;entryY=0.5;entryDx=0;entryDy=0;" parent="1" source="Vf15_LbqZxq-rUc3vXgi-158" target="Vf15_LbqZxq-rUc3vXgi-58" edge="1">
          <mxGeometry x="0.5" y="41" relative="1" as="geometry">
            <mxPoint x="1270" y="448" as="sourcePoint" />
            <mxPoint x="1190" y="584" as="targetPoint" />
            <mxPoint x="-40" y="32" as="offset" />
            <Array as="points">
              <mxPoint x="1250" y="545" />
              <mxPoint x="1250" y="239" />
            </Array>
          </mxGeometry>
        </mxCell>
        <mxCell id="Vf15_LbqZxq-rUc3vXgi-187" value="" style="endArrow=ERone;shadow=0;strokeWidth=1;rounded=0;endFill=0;startArrow=ERmany;startFill=0;edgeStyle=orthogonalEdgeStyle;exitX=1;exitY=0.5;exitDx=0;exitDy=0;entryX=0;entryY=0.5;entryDx=0;entryDy=0;" parent="1" source="Vf15_LbqZxq-rUc3vXgi-110" target="Vf15_LbqZxq-rUc3vXgi-58" edge="1">
          <mxGeometry x="0.5" y="41" relative="1" as="geometry">
            <mxPoint x="1270.46" y="737" as="sourcePoint" />
            <mxPoint x="1270.46" y="431" as="targetPoint" />
            <mxPoint x="-40" y="32" as="offset" />
            <Array as="points">
              <mxPoint x="1240" y="821" />
              <mxPoint x="1240" y="239" />
            </Array>
          </mxGeometry>
        </mxCell>
        <mxCell id="Vf15_LbqZxq-rUc3vXgi-188" value="" style="endArrow=ERone;shadow=0;strokeWidth=1;rounded=0;endFill=0;startArrow=ERone;startFill=0;entryX=-0.002;entryY=0.533;entryDx=0;entryDy=0;edgeStyle=orthogonalEdgeStyle;exitX=1;exitY=0.5;exitDx=0;exitDy=0;entryPerimeter=0;" parent="1" source="Vf15_LbqZxq-rUc3vXgi-58" target="Vf15_LbqZxq-rUc3vXgi-91" edge="1">
          <mxGeometry x="0.5" y="41" relative="1" as="geometry">
            <mxPoint x="1420" y="-66" as="sourcePoint" />
            <mxPoint x="1500" y="-160" as="targetPoint" />
            <mxPoint x="-40" y="32" as="offset" />
            <Array as="points">
              <mxPoint x="1480" y="239" />
              <mxPoint x="1480" y="-120" />
            </Array>
          </mxGeometry>
        </mxCell>
        <mxCell id="Vf15_LbqZxq-rUc3vXgi-189" value="" style="endArrow=ERmany;shadow=0;strokeWidth=1;rounded=0;endFill=0;startArrow=ERone;startFill=0;edgeStyle=orthogonalEdgeStyle;entryX=0;entryY=0.5;entryDx=0;entryDy=0;exitX=0;exitY=0.5;exitDx=0;exitDy=0;" parent="1" source="Vf15_LbqZxq-rUc3vXgi-58" target="Vf15_LbqZxq-rUc3vXgi-70" edge="1">
          <mxGeometry x="0.5" y="41" relative="1" as="geometry">
            <mxPoint x="1280" y="239" as="sourcePoint" />
            <mxPoint x="1010" y="450" as="targetPoint" />
            <mxPoint x="-40" y="32" as="offset" />
            <Array as="points">
              <mxPoint x="1230" y="239" />
              <mxPoint x="1230" y="340" />
              <mxPoint x="1010" y="340" />
              <mxPoint x="1010" y="439" />
            </Array>
          </mxGeometry>
        </mxCell>
        <mxCell id="Vf15_LbqZxq-rUc3vXgi-190" value="" style="endArrow=ERmany;shadow=0;strokeWidth=1;rounded=0;endFill=0;startArrow=ERone;startFill=0;edgeStyle=orthogonalEdgeStyle;exitX=1;exitY=0.5;exitDx=0;exitDy=0;entryX=0;entryY=0.5;entryDx=0;entryDy=0;" parent="1" source="Vf15_LbqZxq-rUc3vXgi-25" target="Vf15_LbqZxq-rUc3vXgi-71" edge="1">
          <mxGeometry x="0.5" y="41" relative="1" as="geometry">
            <mxPoint x="950" y="520" as="sourcePoint" />
            <mxPoint x="1030" y="468" as="targetPoint" />
            <mxPoint x="-40" y="32" as="offset" />
            <Array as="points">
              <mxPoint x="260" y="465" />
              <mxPoint x="260" y="760" />
              <mxPoint x="1010" y="760" />
              <mxPoint x="1010" y="465" />
            </Array>
          </mxGeometry>
        </mxCell>
        <mxCell id="Vf15_LbqZxq-rUc3vXgi-191" value="" style="endArrow=ERone;shadow=0;strokeWidth=1;rounded=0;endFill=0;startArrow=ERmany;startFill=0;edgeStyle=orthogonalEdgeStyle;exitX=1;exitY=0.5;exitDx=0;exitDy=0;entryX=1;entryY=0.5;entryDx=0;entryDy=0;" parent="1" source="Vf15_LbqZxq-rUc3vXgi-83" target="Vf15_LbqZxq-rUc3vXgi-85" edge="1">
          <mxGeometry x="0.5" y="41" relative="1" as="geometry">
            <mxPoint x="1759.96" y="186" as="sourcePoint" />
            <mxPoint x="1679.96" y="160" as="targetPoint" />
            <mxPoint x="-40" y="32" as="offset" />
            <Array as="points">
              <mxPoint x="1820" y="155" />
              <mxPoint x="1820" y="239" />
            </Array>
          </mxGeometry>
        </mxCell>
        <mxCell id="Vf15_LbqZxq-rUc3vXgi-192" value="" style="endArrow=ERone;shadow=0;strokeWidth=1;rounded=0;endFill=0;startArrow=ERmany;startFill=0;edgeStyle=orthogonalEdgeStyle;exitX=1;exitY=0.5;exitDx=0;exitDy=0;entryX=1;entryY=0.5;entryDx=0;entryDy=0;" parent="1" source="Vf15_LbqZxq-rUc3vXgi-117" target="Vf15_LbqZxq-rUc3vXgi-85" edge="1">
          <mxGeometry x="0.5" y="41" relative="1" as="geometry">
            <mxPoint x="1790" y="160" as="sourcePoint" />
            <mxPoint x="1790" y="270" as="targetPoint" />
            <mxPoint x="-40" y="32" as="offset" />
            <Array as="points">
              <mxPoint x="1740" y="583" />
              <mxPoint x="1740" y="410" />
              <mxPoint x="1810" y="410" />
              <mxPoint x="1810" y="239" />
            </Array>
          </mxGeometry>
        </mxCell>
        <mxCell id="Vf15_LbqZxq-rUc3vXgi-193" value="" style="endArrow=ERone;shadow=0;strokeWidth=1;rounded=0;endFill=0;startArrow=ERmany;startFill=0;edgeStyle=orthogonalEdgeStyle;exitX=1;exitY=0.5;exitDx=0;exitDy=0;entryX=0;entryY=0.5;entryDx=0;entryDy=0;" parent="1" source="Vf15_LbqZxq-rUc3vXgi-159" target="Vf15_LbqZxq-rUc3vXgi-85" edge="1">
          <mxGeometry x="0.5" y="41" relative="1" as="geometry">
            <mxPoint x="1700" y="149" as="sourcePoint" />
            <mxPoint x="1700" y="259" as="targetPoint" />
            <mxPoint x="-40" y="32" as="offset" />
            <Array as="points">
              <mxPoint x="1480" y="571" />
              <mxPoint x="1480" y="420" />
              <mxPoint x="1540" y="420" />
              <mxPoint x="1540" y="239" />
            </Array>
          </mxGeometry>
        </mxCell>
        <mxCell id="Vf15_LbqZxq-rUc3vXgi-194" value="" style="endArrow=ERone;shadow=0;strokeWidth=1;rounded=0;endFill=0;startArrow=ERmany;startFill=0;edgeStyle=orthogonalEdgeStyle;exitX=0;exitY=0.5;exitDx=0;exitDy=0;entryX=1;entryY=0.5;entryDx=0;entryDy=0;" parent="1" source="Vf15_LbqZxq-rUc3vXgi-129" target="Vf15_LbqZxq-rUc3vXgi-113" edge="1">
          <mxGeometry x="0.5" y="41" relative="1" as="geometry">
            <mxPoint x="1700" y="370" as="sourcePoint" />
            <mxPoint x="1700" y="510" as="targetPoint" />
            <mxPoint x="-40" y="32" as="offset" />
            <Array as="points">
              <mxPoint x="1780" y="785" />
              <mxPoint x="1780" y="479" />
            </Array>
          </mxGeometry>
        </mxCell>
        <mxCell id="Vf15_LbqZxq-rUc3vXgi-195" value="" style="endArrow=ERone;shadow=0;strokeWidth=1;rounded=0;endFill=0;startArrow=ERmany;startFill=0;edgeStyle=orthogonalEdgeStyle;exitX=1;exitY=0.5;exitDx=0;exitDy=0;entryX=1;entryY=0.5;entryDx=0;entryDy=0;" parent="1" source="Vf15_LbqZxq-rUc3vXgi-122" target="Vf15_LbqZxq-rUc3vXgi-128" edge="1">
          <mxGeometry x="0.5" y="41" relative="1" as="geometry">
            <mxPoint x="1700" y="810" as="sourcePoint" />
            <mxPoint x="1700" y="920" as="targetPoint" />
            <mxPoint x="-40" y="32" as="offset" />
            <Array as="points">
              <mxPoint x="2110" y="505" />
              <mxPoint x="2110" y="759" />
            </Array>
          </mxGeometry>
        </mxCell>
        <mxCell id="Vf15_LbqZxq-rUc3vXgi-196" value="" style="endArrow=ERone;shadow=0;strokeWidth=1;rounded=0;endFill=0;startArrow=ERmany;startFill=0;edgeStyle=orthogonalEdgeStyle;exitX=1;exitY=0.5;exitDx=0;exitDy=0;entryX=0;entryY=0.5;entryDx=0;entryDy=0;" parent="1" source="Vf15_LbqZxq-rUc3vXgi-66" target="Vf15_LbqZxq-rUc3vXgi-58" edge="1">
          <mxGeometry x="0.5" y="41" relative="1" as="geometry">
            <mxPoint x="1130" y="646" as="sourcePoint" />
            <mxPoint x="1130" y="340" as="targetPoint" />
            <mxPoint x="-40" y="32" as="offset" />
            <Array as="points">
              <mxPoint x="1220" y="209" />
              <mxPoint x="1220" y="239" />
            </Array>
          </mxGeometry>
        </mxCell>
        <mxCell id="Vf15_LbqZxq-rUc3vXgi-197" value="" style="endArrow=ERone;shadow=0;strokeWidth=1;rounded=0;endFill=0;startArrow=ERmany;startFill=0;edgeStyle=orthogonalEdgeStyle;entryX=1;entryY=0.5;entryDx=0;entryDy=0;exitX=0;exitY=0.5;exitDx=0;exitDy=0;" parent="1" source="Vf15_LbqZxq-rUc3vXgi-67" target="Vf15_LbqZxq-rUc3vXgi-19" edge="1">
          <mxGeometry x="0.5" y="41" relative="1" as="geometry">
            <mxPoint x="980" y="340" as="sourcePoint" />
            <mxPoint x="1141.6" y="340" as="targetPoint" />
            <mxPoint x="-40" y="32" as="offset" />
            <Array as="points">
              <mxPoint x="980" y="235" />
              <mxPoint x="980" y="340" />
              <mxPoint x="740" y="340" />
              <mxPoint x="740" y="439" />
            </Array>
          </mxGeometry>
        </mxCell>
        <mxCell id="Vf15_LbqZxq-rUc3vXgi-198" value="" style="endArrow=ERone;shadow=0;strokeWidth=1;rounded=0;endFill=0;startArrow=ERmany;startFill=0;edgeStyle=orthogonalEdgeStyle;exitX=1;exitY=0.5;exitDx=0;exitDy=0;entryX=1;entryY=0.5;entryDx=0;entryDy=0;" parent="1" source="Vf15_LbqZxq-rUc3vXgi-135" target="Vf15_LbqZxq-rUc3vXgi-113" edge="1">
          <mxGeometry x="0.5" y="41" relative="1" as="geometry">
            <mxPoint x="1770" y="826" as="sourcePoint" />
            <mxPoint x="1690" y="480" as="targetPoint" />
            <mxPoint x="-40" y="32" as="offset" />
            <Array as="points">
              <mxPoint x="1760" y="745" />
              <mxPoint x="1760" y="479" />
            </Array>
          </mxGeometry>
        </mxCell>
        <mxCell id="Vf15_LbqZxq-rUc3vXgi-199" value="" style="endArrow=ERone;shadow=0;strokeWidth=1;rounded=0;endFill=0;startArrow=ERmany;startFill=0;edgeStyle=orthogonalEdgeStyle;entryX=1;entryY=0.5;entryDx=0;entryDy=0;exitX=0;exitY=0.5;exitDx=0;exitDy=0;" parent="1" source="Vf15_LbqZxq-rUc3vXgi-136" target="Vf15_LbqZxq-rUc3vXgi-19" edge="1">
          <mxGeometry x="0.5" y="41" relative="1" as="geometry">
            <mxPoint x="1480" y="740" as="sourcePoint" />
            <mxPoint x="730" y="440" as="targetPoint" />
            <mxPoint x="-40" y="32" as="offset" />
            <Array as="points">
              <mxPoint x="1490" y="797" />
              <mxPoint x="1490" y="1040" />
              <mxPoint x="740" y="1040" />
              <mxPoint x="740" y="439" />
            </Array>
          </mxGeometry>
        </mxCell>
        <mxCell id="Vf15_LbqZxq-rUc3vXgi-202" value="Журнал (journal)" style="swimlane;fontStyle=0;align=center;verticalAlign=top;childLayout=stackLayout;horizontal=1;startSize=26;horizontalStack=0;resizeParent=1;resizeLast=0;collapsible=1;marginBottom=0;rounded=0;shadow=0;strokeWidth=1;" parent="1" vertex="1">
          <mxGeometry x="1460" y="1080" width="250" height="270" as="geometry">
            <mxRectangle x="340" y="380" width="170" height="26" as="alternateBounds" />
          </mxGeometry>
        </mxCell>
        <mxCell id="4tzGwSmh90k9xzZRoyF0-4" value="ID журнала (id_journal)" style="text;align=left;verticalAlign=top;spacingLeft=4;spacingRight=4;overflow=hidden;rotatable=0;points=[[0,0.5],[1,0.5]];portConstraint=eastwest;" parent="Vf15_LbqZxq-rUc3vXgi-202" vertex="1">
          <mxGeometry y="26" width="250" height="26" as="geometry" />
        </mxCell>
        <mxCell id="Vf15_LbqZxq-rUc3vXgi-203" value="ID теста (id_test)" style="text;align=left;verticalAlign=top;spacingLeft=4;spacingRight=4;overflow=hidden;rotatable=0;points=[[0,0.5],[1,0.5]];portConstraint=eastwest;" parent="Vf15_LbqZxq-rUc3vXgi-202" vertex="1">
          <mxGeometry y="52" width="250" height="26" as="geometry" />
        </mxCell>
        <mxCell id="Vf15_LbqZxq-rUc3vXgi-206" value="ID курса (id_course)" style="text;align=left;verticalAlign=top;spacingLeft=4;spacingRight=4;overflow=hidden;rotatable=0;points=[[0,0.5],[1,0.5]];portConstraint=eastwest;" parent="Vf15_LbqZxq-rUc3vXgi-202" vertex="1">
          <mxGeometry y="78" width="250" height="26" as="geometry" />
        </mxCell>
        <mxCell id="4tzGwSmh90k9xzZRoyF0-6" value="ID группы (id_group)" style="text;align=left;verticalAlign=top;spacingLeft=4;spacingRight=4;overflow=hidden;rotatable=0;points=[[0,0.5],[1,0.5]];portConstraint=eastwest;" parent="Vf15_LbqZxq-rUc3vXgi-202" vertex="1">
          <mxGeometry y="104" width="250" height="26" as="geometry" />
        </mxCell>
        <mxCell id="Vf15_LbqZxq-rUc3vXgi-207" value="ID студента (id_student)" style="text;align=left;verticalAlign=top;spacingLeft=4;spacingRight=4;overflow=hidden;rotatable=0;points=[[0,0.5],[1,0.5]];portConstraint=eastwest;" parent="Vf15_LbqZxq-rUc3vXgi-202" vertex="1">
          <mxGeometry y="130" width="250" height="26" as="geometry" />
        </mxCell>
        <mxCell id="Vf15_LbqZxq-rUc3vXgi-204" value="Дата попытки (date_attempt)" style="text;align=left;verticalAlign=top;spacingLeft=4;spacingRight=4;overflow=hidden;rotatable=0;points=[[0,0.5],[1,0.5]];portConstraint=eastwest;" parent="Vf15_LbqZxq-rUc3vXgi-202" vertex="1">
          <mxGeometry y="156" width="250" height="26" as="geometry" />
        </mxCell>
        <mxCell id="Vf15_LbqZxq-rUc3vXgi-205" value="Полученные баллы (score)" style="text;align=left;verticalAlign=top;spacingLeft=4;spacingRight=4;overflow=hidden;rotatable=0;points=[[0,0.5],[1,0.5]];portConstraint=eastwest;" parent="Vf15_LbqZxq-rUc3vXgi-202" vertex="1">
          <mxGeometry y="182" width="250" height="26" as="geometry" />
        </mxCell>
        <mxCell id="4tzGwSmh90k9xzZRoyF0-7" value="Макс. балл (max_score)" style="text;align=left;verticalAlign=top;spacingLeft=4;spacingRight=4;overflow=hidden;rotatable=0;points=[[0,0.5],[1,0.5]];portConstraint=eastwest;" parent="Vf15_LbqZxq-rUc3vXgi-202" vertex="1">
          <mxGeometry y="208" width="250" height="26" as="geometry" />
        </mxCell>
        <mxCell id="4tzGwSmh90k9xzZRoyF0-9" value="Проценты (percentage)" style="text;align=left;verticalAlign=top;spacingLeft=4;spacingRight=4;overflow=hidden;rotatable=0;points=[[0,0.5],[1,0.5]];portConstraint=eastwest;" parent="Vf15_LbqZxq-rUc3vXgi-202" vertex="1">
          <mxGeometry y="234" width="250" height="26" as="geometry" />
        </mxCell>
        <mxCell id="Vf15_LbqZxq-rUc3vXgi-209" value="" style="endArrow=ERone;shadow=0;strokeWidth=1;rounded=0;endFill=0;startArrow=ERmany;startFill=0;edgeStyle=orthogonalEdgeStyle;entryX=1;entryY=0.5;entryDx=0;entryDy=0;exitX=0;exitY=0.5;exitDx=0;exitDy=0;" parent="1" source="Vf15_LbqZxq-rUc3vXgi-96" target="Vf15_LbqZxq-rUc3vXgi-99" edge="1">
          <mxGeometry x="0.5" y="41" relative="1" as="geometry">
            <mxPoint x="1300" y="-80" as="sourcePoint" />
            <mxPoint x="1200" y="-10" as="targetPoint" />
            <mxPoint x="-40" y="32" as="offset" />
            <Array as="points">
              <mxPoint x="1230" y="65" />
              <mxPoint x="1230" y="55" />
            </Array>
          </mxGeometry>
        </mxCell>
        <mxCell id="Vf15_LbqZxq-rUc3vXgi-210" value="" style="endArrow=ERone;shadow=0;strokeWidth=1;rounded=0;endFill=0;startArrow=ERmany;startFill=0;edgeStyle=orthogonalEdgeStyle;entryX=1;entryY=0.5;entryDx=0;entryDy=0;exitX=1;exitY=0.5;exitDx=0;exitDy=0;" parent="1" source="Vf15_LbqZxq-rUc3vXgi-95" target="Vf15_LbqZxq-rUc3vXgi-61" edge="1">
          <mxGeometry x="0.5" y="41" relative="1" as="geometry">
            <mxPoint x="1270" y="150" as="sourcePoint" />
            <mxPoint x="1220" y="140" as="targetPoint" />
            <mxPoint x="-40" y="32" as="offset" />
            <Array as="points">
              <mxPoint x="1470" y="39" />
              <mxPoint x="1470" y="317" />
            </Array>
          </mxGeometry>
        </mxCell>
        <mxCell id="Vf15_LbqZxq-rUc3vXgi-211" value="" style="endArrow=ERone;shadow=0;strokeWidth=1;rounded=0;endFill=0;startArrow=ERmany;startFill=0;edgeStyle=orthogonalEdgeStyle;exitX=0;exitY=0.5;exitDx=0;exitDy=0;entryX=0;entryY=0.5;entryDx=0;entryDy=0;" parent="1" source="Vf15_LbqZxq-rUc3vXgi-109" target="Vf15_LbqZxq-rUc3vXgi-2" edge="1">
          <mxGeometry x="0.5" y="41" relative="1" as="geometry">
            <mxPoint x="1100" y="920" as="sourcePoint" />
            <mxPoint x="820" y="990" as="targetPoint" />
            <mxPoint x="-40" y="32" as="offset" />
            <Array as="points">
              <mxPoint x="270" y="795" />
              <mxPoint x="270" y="359" />
            </Array>
          </mxGeometry>
        </mxCell>
        <mxCell id="Vf15_LbqZxq-rUc3vXgi-213" value="" style="endArrow=ERone;shadow=0;strokeWidth=1;rounded=0;endFill=0;startArrow=ERmany;startFill=0;edgeStyle=orthogonalEdgeStyle;exitX=0;exitY=0.5;exitDx=0;exitDy=0;entryX=1;entryY=0.5;entryDx=0;entryDy=0;" parent="1" source="Vf15_LbqZxq-rUc3vXgi-165" target="Vf15_LbqZxq-rUc3vXgi-103" edge="1">
          <mxGeometry x="0.5" y="41" relative="1" as="geometry">
            <mxPoint x="1300" y="399" as="sourcePoint" />
            <mxPoint x="1020" y="469" as="targetPoint" />
            <mxPoint x="-40" y="32" as="offset" />
            <Array as="points">
              <mxPoint x="1250" y="727" />
              <mxPoint x="1250" y="639" />
            </Array>
          </mxGeometry>
        </mxCell>
        <mxCell id="Vf15_LbqZxq-rUc3vXgi-215" value="" style="endArrow=ERone;shadow=0;strokeWidth=1;rounded=0;endFill=0;startArrow=ERmany;startFill=0;edgeStyle=orthogonalEdgeStyle;exitX=1;exitY=0.5;exitDx=0;exitDy=0;entryX=1;entryY=0.5;entryDx=0;entryDy=0;" parent="1" source="Vf15_LbqZxq-rUc3vXgi-168" target="Vf15_LbqZxq-rUc3vXgi-157" edge="1">
          <mxGeometry x="0.5" y="41" relative="1" as="geometry">
            <mxPoint x="1430" y="466" as="sourcePoint" />
            <mxPoint x="1310" y="440" as="targetPoint" />
            <mxPoint x="-40" y="32" as="offset" />
            <Array as="points">
              <mxPoint x="1470" y="839" />
              <mxPoint x="1470" y="519" />
            </Array>
          </mxGeometry>
        </mxCell>
        <mxCell id="Vf15_LbqZxq-rUc3vXgi-216" value="" style="endArrow=ERone;shadow=0;strokeWidth=1;rounded=0;endFill=0;startArrow=ERmany;startFill=0;edgeStyle=orthogonalEdgeStyle;exitX=0;exitY=0.5;exitDx=0;exitDy=0;entryX=1;entryY=0.5;entryDx=0;entryDy=0;" parent="1" source="Vf15_LbqZxq-rUc3vXgi-169" target="Vf15_LbqZxq-rUc3vXgi-19" edge="1">
          <mxGeometry x="0.5" y="41" relative="1" as="geometry">
            <mxPoint x="1150" y="946" as="sourcePoint" />
            <mxPoint x="1030" y="920" as="targetPoint" />
            <mxPoint x="-40" y="32" as="offset" />
            <Array as="points">
              <mxPoint x="1240" y="865" />
              <mxPoint x="1240" y="890" />
              <mxPoint x="760" y="890" />
              <mxPoint x="760" y="439" />
            </Array>
          </mxGeometry>
        </mxCell>
        <mxCell id="4tzGwSmh90k9xzZRoyF0-5" value="" style="endArrow=ERone;shadow=0;strokeWidth=1;rounded=0;endFill=0;startArrow=ERmany;startFill=0;edgeStyle=orthogonalEdgeStyle;exitX=0;exitY=0.5;exitDx=0;exitDy=0;entryX=1;entryY=0.5;entryDx=0;entryDy=0;" parent="1" source="4tzGwSmh90k9xzZRoyF0-2" target="Vf15_LbqZxq-rUc3vXgi-58" edge="1">
          <mxGeometry x="0.5" y="41" relative="1" as="geometry">
            <mxPoint x="1450" y="849" as="sourcePoint" />
            <mxPoint x="1460" y="529" as="targetPoint" />
            <mxPoint x="-40" y="32" as="offset" />
            <Array as="points">
              <mxPoint x="1490" y="770" />
              <mxPoint x="1490" y="239" />
            </Array>
          </mxGeometry>
        </mxCell>
        <mxCell id="4tzGwSmh90k9xzZRoyF0-10" value="" style="endArrow=ERone;shadow=0;strokeWidth=1;rounded=0;endFill=0;startArrow=ERmany;startFill=0;edgeStyle=orthogonalEdgeStyle;exitX=1;exitY=0.5;exitDx=0;exitDy=0;entryX=1;entryY=0.5;entryDx=0;entryDy=0;" parent="1" source="Vf15_LbqZxq-rUc3vXgi-203" target="Vf15_LbqZxq-rUc3vXgi-113" edge="1">
          <mxGeometry x="0.5" y="41" relative="1" as="geometry">
            <mxPoint x="1820" y="1296" as="sourcePoint" />
            <mxPoint x="1750" y="990" as="targetPoint" />
            <mxPoint x="-40" y="32" as="offset" />
            <Array as="points">
              <mxPoint x="1770" y="1145" />
              <mxPoint x="1770" y="479" />
            </Array>
          </mxGeometry>
        </mxCell>
        <mxCell id="4tzGwSmh90k9xzZRoyF0-11" value="" style="endArrow=ERone;shadow=0;strokeWidth=1;rounded=0;endFill=0;startArrow=ERmany;startFill=0;edgeStyle=orthogonalEdgeStyle;exitX=1;exitY=0.5;exitDx=0;exitDy=0;entryX=1;entryY=0.5;entryDx=0;entryDy=0;" parent="1" source="Vf15_LbqZxq-rUc3vXgi-206" target="Vf15_LbqZxq-rUc3vXgi-58" edge="1">
          <mxGeometry x="0.5" y="41" relative="1" as="geometry">
            <mxPoint x="1890" y="1314" as="sourcePoint" />
            <mxPoint x="1870" y="370" as="targetPoint" />
            <mxPoint x="-40" y="32" as="offset" />
            <Array as="points">
              <mxPoint x="2160" y="1171" />
              <mxPoint x="2160" y="370" />
              <mxPoint x="1510" y="370" />
              <mxPoint x="1510" y="239" />
            </Array>
          </mxGeometry>
        </mxCell>
        <mxCell id="4tzGwSmh90k9xzZRoyF0-12" value="" style="endArrow=ERone;shadow=0;strokeWidth=1;rounded=0;endFill=0;startArrow=ERmany;startFill=0;edgeStyle=orthogonalEdgeStyle;exitX=0;exitY=0.5;exitDx=0;exitDy=0;entryX=1;entryY=0.5;entryDx=0;entryDy=0;" parent="1" source="4tzGwSmh90k9xzZRoyF0-6" target="Vf15_LbqZxq-rUc3vXgi-52" edge="1">
          <mxGeometry x="0.5" y="41" relative="1" as="geometry">
            <mxPoint x="1385" y="1366" as="sourcePoint" />
            <mxPoint x="1315" y="1060" as="targetPoint" />
            <mxPoint x="-40" y="32" as="offset" />
            <Array as="points">
              <mxPoint x="1000" y="1197" />
              <mxPoint x="1000" y="439" />
            </Array>
          </mxGeometry>
        </mxCell>
        <mxCell id="4tzGwSmh90k9xzZRoyF0-13" value="" style="endArrow=ERone;shadow=0;strokeWidth=1;rounded=0;endFill=0;startArrow=ERmany;startFill=0;edgeStyle=orthogonalEdgeStyle;exitX=0;exitY=0.5;exitDx=0;exitDy=0;entryX=1;entryY=0.5;entryDx=0;entryDy=0;" parent="1" source="Vf15_LbqZxq-rUc3vXgi-207" target="Vf15_LbqZxq-rUc3vXgi-19" edge="1">
          <mxGeometry x="0.5" y="41" relative="1" as="geometry">
            <mxPoint x="1930" y="1376" as="sourcePoint" />
            <mxPoint x="590" y="860" as="targetPoint" />
            <mxPoint x="-40" y="32" as="offset" />
            <Array as="points">
              <mxPoint x="750" y="1223" />
              <mxPoint x="750" y="439" />
            </Array>
          </mxGeometry>
        </mxCell>
      </root>
    </mxGraphModel>
  </diagram>
</mxfile>
